<svg width="393" height="393" viewBox="0 0 393 393" fill="none" xmlns="http://www.w3.org/2000/svg">
<path d="M354 292H34C84 355 129 375 208 383C271.2 389.4 331.667 325 354 292Z" fill="#75D04B"/>
<path fill-rule="evenodd" clip-rule="evenodd" d="M196.5 393C305.024 393 393 305.024 393 196.5C393 87.976 305.024 0 196.5 0C87.976 0 0 87.976 0 196.5C0 305.024 87.976 393 196.5 393ZM196 368C290.993 368 368 290.993 368 196C368 101.007 290.993 24 196 24C101.007 24 24 101.007 24 196C24 290.993 101.007 368 196 368Z" fill="#5A72EF"/>
<path d="M194.669 307.438C197.003 308.592 198.768 308.431 203.482 307.564C203.606 298.907 200.301 283.53 200.327 281.73C200.41 275.938 201.674 269.727 204.112 263.657C203.438 262.9 201.134 262.381 197.316 266.363C192.543 271.34 192.335 306.283 194.669 307.438Z" fill="#874F1C"/>
<path d="M190.5 332.315H137.226L143.993 325.88C140.29 316.724 138.794 313.519 137.726 311.23C134.263 303.812 144.093 316.759 148.26 322.998C147.323 319.21 147.777 313.281 149.691 311.23C151.115 316.724 155.275 323.133 159.377 323.133C161.371 323.133 161.371 316.724 161.371 311.23C163.651 316.724 163.746 319.165 163.651 323.133C164.695 324.049 166.784 325.33 166.784 323.133C166.784 320.386 165.645 313.519 168.209 311.23C168.209 316.724 168.684 320.081 170.773 323.133H177.04C179.501 323.133 177.238 315.12 180.075 311.642C180.163 311.412 180.289 311.269 180.459 311.23C180.322 311.359 180.194 311.497 180.075 311.642C179.334 313.576 181.265 321.653 182.453 325.88C183.308 320.844 184.846 311.963 184.163 316.724C183.479 321.485 187.936 329.873 190.5 332.315Z" fill="#75D04B"/>
<path d="M185 312H211.637L208.503 308.076C210.355 299.356 211.103 296.304 211.637 294.124C213.368 287.059 208.454 299.39 206.37 305.332C206.838 301.724 206.612 296.077 205.655 294.124C204.942 299.356 202.863 305.46 200.811 305.46C199.814 305.46 199.814 299.356 199.814 294.124C198.675 299.356 198.627 301.681 198.675 305.46C198.152 306.332 197.108 307.553 197.108 305.46C197.108 302.844 197.678 296.304 196.396 294.124C196.396 299.356 196.158 302.553 195.114 305.46H191.98C190.749 305.46 191.881 297.829 190.463 294.517C190.418 294.297 190.355 294.161 190.27 294.124C190.339 294.247 190.403 294.378 190.463 294.517C190.833 296.358 189.867 304.05 189.273 308.076C188.846 303.28 188.077 294.821 188.419 299.356C188.761 303.89 186.282 309.675 185 312Z" fill="#75D04B"/>
<path d="M171 344.685H197.637L194.503 340.565C196.355 331.409 197.103 328.204 197.637 325.915C199.368 318.497 194.454 331.444 192.37 337.683C192.838 333.896 192.612 327.966 191.655 325.915C190.942 331.409 188.863 337.818 186.811 337.818C185.814 337.818 185.814 331.409 185.814 325.915C184.675 331.409 184.627 333.85 184.675 337.818C184.152 338.734 183.108 340.016 183.108 337.818C183.108 335.071 183.678 328.204 182.396 325.915C182.396 331.409 182.158 334.766 181.114 337.818H177.98C176.749 337.818 177.881 329.806 176.463 326.328C176.418 326.097 176.355 325.954 176.27 325.915C176.339 326.044 176.403 326.182 176.463 326.328C176.833 328.261 175.867 336.338 175.273 340.565C174.846 335.529 174.077 326.648 174.419 331.409C174.761 336.17 172.282 342.244 171 344.685Z" fill="#75D04B"/>
<path d="M163 250C166.71 256.151 191.289 252.197 196.39 266.256C201.492 280.315 173.203 282.511 163 250Z" fill="#77B659"/>
<path d="M223.401 257.709C218.495 259.517 217.725 277.876 207.005 279.563C196.284 281.251 198.841 260.457 223.401 257.709Z" fill="#77B659"/>
</svg>
