<svg width="393" height="393" viewBox="0 0 393 393" fill="none" xmlns="http://www.w3.org/2000/svg">
<path d="M354 292H34C84 355 129 375 208 383C271.2 389.4 331.667 325 354 292Z" fill="#75D04B"/>
<path fill-rule="evenodd" clip-rule="evenodd" d="M196.5 393C305.024 393 393 305.024 393 196.5C393 87.976 305.024 0 196.5 0C87.976 0 0 87.976 0 196.5C0 305.024 87.976 393 196.5 393ZM196 368C290.993 368 368 290.993 368 196C368 101.007 290.993 24 196 24C101.007 24 24 101.007 24 196C24 290.993 101.007 368 196 368Z" fill="#5A72EF"/>
<path fill-rule="evenodd" clip-rule="evenodd" d="M179.997 102.516C176.345 96.4706 169.2 93.0291 161.857 94.4307C157.378 95.2855 153.631 97.788 151.125 101.191C150.317 101.23 149.502 101.326 148.685 101.482C144.312 102.316 140.638 104.721 138.133 108.001C134.597 105.874 130.295 104.992 125.922 105.826C120.141 106.93 115.579 110.779 113.33 115.766C111.279 115.392 109.126 115.384 106.956 115.798C98.6191 117.389 92.8186 124.69 92.8315 132.877C88.4995 136.813 86.2583 142.843 87.4359 149.013C89.2354 158.441 98.3375 164.626 107.766 162.826C110.601 162.285 113.142 161.084 115.262 159.412C118.433 166.695 126.321 171.08 134.452 169.529C139.936 168.482 144.322 164.965 146.678 160.349C148.028 160.415 149.406 160.323 150.791 160.058C158.378 158.61 163.865 152.433 164.781 145.163C166.949 145.611 169.239 145.649 171.548 145.208C176.856 144.195 181.136 140.867 183.542 136.47C191.953 133.933 197.257 125.398 195.573 116.577C194.08 108.755 187.56 103.165 179.997 102.516Z" fill="#75D04B"/>
<path fill-rule="evenodd" clip-rule="evenodd" d="M231.88 94.0062C230.58 87.0644 225.096 81.3357 217.727 80.0732C213.233 79.3032 208.847 80.333 205.306 82.6404C204.536 82.3937 203.739 82.1978 202.919 82.0573C198.532 81.3056 194.247 82.2693 190.751 84.4625C188.186 81.2307 184.466 78.8956 180.079 78.1439C174.277 77.1499 168.655 79.1553 164.8 83.037C163.011 81.9677 160.998 81.2045 158.82 80.8314C150.454 79.3981 142.462 84.2013 139.603 91.8735C134.166 94.0399 129.953 98.9012 128.892 105.092C127.271 114.553 133.626 123.537 143.087 125.157C145.931 125.645 148.733 125.411 151.304 124.589C151.72 132.521 157.569 139.394 165.728 140.792C171.23 141.735 176.572 139.979 180.397 136.484C181.638 137.018 182.961 137.415 184.351 137.653C191.964 138.957 199.268 135.097 202.675 128.609C204.548 129.789 206.68 130.628 208.997 131.025C214.323 131.937 219.498 130.322 223.293 127.048C232.06 127.621 240.02 121.488 241.536 112.637C242.881 104.787 238.735 97.266 231.88 94.0062Z" fill="#75D04B"/>
<path fill-rule="evenodd" clip-rule="evenodd" d="M199.375 89.1066C202.781 82.9181 209.811 79.1949 217.252 80.3063C221.789 80.9841 225.663 83.3383 228.33 86.6413C229.144 86.6485 229.967 86.7123 230.795 86.836C235.225 87.4977 239.022 89.7572 241.682 92.9376C245.143 90.6715 249.428 89.6192 253.858 90.281C259.716 91.156 264.467 94.8249 266.944 99.7223C268.989 99.2674 271.152 99.1736 273.35 99.5021C281.797 100.764 287.944 107.835 288.287 116.021C292.812 119.785 295.327 125.726 294.412 131.941C293.014 141.439 284.136 147.982 274.583 146.555C271.711 146.126 269.105 145.026 266.903 143.438C264.033 150.845 256.297 155.541 248.059 154.311C242.503 153.481 237.942 150.137 235.373 145.616C234.02 145.734 232.631 145.697 231.227 145.487C223.54 144.339 217.758 138.379 216.521 131.146C214.362 131.68 212.063 131.808 209.723 131.459C204.345 130.655 199.899 127.497 197.29 123.196C188.728 120.991 183.026 112.667 184.334 103.781C185.494 95.9004 191.803 90.0541 199.375 89.1066Z" fill="#75D04B"/>
<path fill-rule="evenodd" clip-rule="evenodd" d="M295.107 174.056C299.681 179.439 300.662 187.334 296.979 193.894C294.733 197.894 291.156 200.679 287.12 201.997C286.825 202.755 286.472 203.502 286.062 204.232C283.869 208.138 280.408 210.884 276.49 212.24C277.378 216.28 276.839 220.659 274.646 224.565C271.746 229.729 266.628 232.867 261.17 233.442C260.869 235.514 260.187 237.569 259.099 239.508C254.917 246.955 246.124 250.187 238.349 247.599C233.223 250.49 226.777 250.729 221.292 247.665C212.911 242.983 209.95 232.359 214.679 223.937C216.101 221.405 218.056 219.36 220.323 217.866C214.42 212.551 212.779 203.651 216.857 196.389C219.608 191.49 224.354 188.415 229.493 187.621C229.863 186.314 230.392 185.029 231.087 183.792C234.892 177.014 242.517 173.728 249.718 175.142C249.987 172.935 250.684 170.74 251.842 168.677C254.504 163.935 259.036 160.902 263.984 159.992C269.088 152.773 278.895 150.402 286.736 154.782C293.69 158.667 296.912 166.642 295.107 174.056Z" fill="#75D04B"/>
<path fill-rule="evenodd" clip-rule="evenodd" d="M97.9889 186.741C95.9108 193.087 97.564 200.853 102.63 206.095C105.72 209.292 109.524 210.976 113.247 211.143C113.726 211.784 114.248 212.399 114.812 212.982C117.828 216.104 121.525 217.782 125.163 218.016C125.693 222.094 127.499 226.11 130.516 229.232C134.505 233.359 139.683 234.964 144.343 234.041C145.236 235.93 146.435 237.699 147.932 239.249C153.684 245.2 161.909 245.906 167.485 241.354C172.593 242.723 177.96 241.216 181.508 236.828C186.929 230.124 186.051 219.233 179.546 212.502C177.59 210.478 175.348 209.061 173.022 208.251C176.213 201.612 174.787 192.714 169.178 186.909C165.394 182.994 160.541 181.349 156.075 181.977C155.364 180.835 154.53 179.756 153.574 178.767C148.339 173.351 141.056 172.279 135.586 175.561C134.678 173.535 133.422 171.637 131.829 169.988C128.166 166.199 123.502 164.536 119.157 165.003C112.718 159.515 103.93 159.901 98.8576 166.173C94.3593 171.736 94.1978 180.181 97.9889 186.741Z" fill="#75D04B"/>
<path fill-rule="evenodd" clip-rule="evenodd" d="M115.894 180.975C117.669 187.412 123.339 192.971 130.458 194.541C134.8 195.498 138.901 194.799 142.096 192.881C142.85 193.15 143.624 193.375 144.416 193.549C148.656 194.484 152.664 193.84 155.826 192.024C158.521 195.131 162.246 197.479 166.485 198.414C172.09 199.649 177.293 198.125 180.666 194.781C182.454 195.862 184.432 196.674 186.536 197.138C194.618 198.92 201.864 194.962 203.995 188.088C209.009 186.405 212.649 182.184 213.181 176.566C213.995 167.983 207.244 159.391 198.103 157.376C195.355 156.77 192.703 156.828 190.317 157.438C189.307 150.141 183.202 143.513 175.319 141.775C170.002 140.603 165.048 141.915 161.673 144.906C160.449 144.347 159.158 143.909 157.815 143.613C150.459 141.991 143.797 145.123 141.051 150.881C139.175 149.694 137.079 148.806 134.84 148.313C129.694 147.178 124.887 148.37 121.523 151.16C113.125 150.145 106.014 155.323 105.252 163.353C104.577 170.475 109.11 177.603 115.894 180.975Z" fill="#75D04B"/>
<path fill-rule="evenodd" clip-rule="evenodd" d="M180.713 185.281C182.488 191.719 188.157 197.278 195.277 198.847C199.619 199.804 203.719 199.105 206.915 197.188C207.668 197.457 208.443 197.681 209.235 197.856C213.474 198.79 217.483 198.146 220.644 196.33C223.339 199.437 227.064 201.786 231.303 202.72C236.909 203.956 242.112 202.431 245.485 199.088C247.273 200.168 249.25 200.98 251.354 201.444C259.437 203.226 266.682 199.269 268.814 192.394C273.828 190.712 277.467 186.49 278 180.873C278.813 172.289 272.063 163.697 262.922 161.682C260.173 161.076 257.522 161.134 255.135 161.744C254.126 154.448 248.02 147.819 240.138 146.082C234.821 144.91 229.866 146.221 226.492 149.212C225.268 148.653 223.976 148.215 222.633 147.919C215.278 146.298 208.615 149.429 205.87 155.187C203.994 154.001 201.898 153.113 199.658 152.619C194.512 151.485 189.706 152.677 186.342 155.467C177.944 154.451 170.832 159.629 170.071 167.66C169.396 174.782 173.928 181.909 180.713 185.281Z" fill="#75D04B"/>
<path fill-rule="evenodd" clip-rule="evenodd" d="M181.835 112.146C178.184 106.101 171.038 102.659 163.695 104.061C159.216 104.916 155.47 107.418 152.963 110.821C152.155 110.86 151.34 110.956 150.523 111.112C146.15 111.946 142.476 114.351 139.971 117.631C136.435 115.504 132.133 114.622 127.76 115.456C121.979 116.56 117.417 120.41 115.168 125.396C113.117 125.023 110.964 125.014 108.794 125.428C100.457 127.019 94.6567 134.32 94.6696 142.508C90.3376 146.443 88.0964 152.473 89.274 158.643C91.0735 168.072 100.176 174.256 109.604 172.456C112.439 171.915 114.98 170.714 117.1 169.043C120.271 176.325 128.159 180.711 136.29 179.159C141.774 178.112 146.16 174.595 148.517 169.98C149.866 170.045 151.244 169.953 152.629 169.689C160.216 168.24 165.703 162.064 166.619 154.793C168.787 155.241 171.077 155.279 173.386 154.838C178.694 153.825 182.974 150.498 185.38 146.1C193.791 143.563 199.095 135.028 197.411 126.208C195.918 118.385 189.398 112.795 181.835 112.146Z" fill="#77B659"/>
<path fill-rule="evenodd" clip-rule="evenodd" d="M253.88 137.006C252.58 130.064 247.096 124.336 239.727 123.073C235.233 122.303 230.847 123.333 227.306 125.64C226.536 125.394 225.739 125.198 224.919 125.057C220.532 124.306 216.247 125.269 212.751 127.463C210.186 124.231 206.466 121.896 202.079 121.144C196.277 120.15 190.655 122.155 186.8 126.037C185.011 124.968 182.998 124.205 180.82 123.831C172.454 122.398 164.462 127.201 161.603 134.873C156.166 137.04 151.952 141.901 150.892 148.092C149.271 157.553 155.626 166.537 165.087 168.157C167.931 168.645 170.733 168.411 173.304 167.589C173.72 175.521 179.569 182.394 187.728 183.792C193.23 184.735 198.572 182.979 202.397 179.484C203.638 180.018 204.961 180.415 206.351 180.653C213.964 181.957 221.268 178.097 224.675 171.609C226.548 172.789 228.68 173.628 230.997 174.025C236.323 174.937 241.498 173.322 245.293 170.048C254.06 170.621 262.02 164.488 263.536 155.637C264.881 147.787 260.735 140.266 253.88 137.006Z" fill="#77B659"/>
<path fill-rule="evenodd" clip-rule="evenodd" d="M197.947 98.808C201.353 92.6194 208.383 88.8962 215.824 90.0076C220.361 90.6854 224.235 93.0396 226.902 96.3426C227.716 96.3498 228.539 96.4136 229.367 96.5373C233.797 97.1991 237.594 99.4586 240.254 102.639C243.715 100.373 248 99.3206 252.43 99.9823C258.288 100.857 263.039 104.526 265.516 109.424C267.561 108.969 269.724 108.875 271.922 109.203C280.369 110.465 286.516 117.536 286.859 125.723C291.384 129.487 293.899 135.427 292.984 141.643C291.586 151.141 282.708 157.684 273.155 156.257C270.283 155.828 267.677 154.727 265.475 153.139C262.605 160.546 254.869 165.242 246.631 164.012C241.075 163.182 236.514 159.838 233.945 155.317C232.592 155.436 231.203 155.398 229.8 155.188C222.112 154.04 216.33 148.081 215.093 140.848C212.934 141.381 210.635 141.51 208.295 141.16C202.917 140.357 198.471 137.199 195.862 132.897C187.3 130.692 181.599 122.368 182.906 113.482C184.066 105.602 190.375 99.7555 197.947 98.808Z" fill="#77B659"/>
<path fill-rule="evenodd" clip-rule="evenodd" d="M305.107 147.056C309.681 152.439 310.662 160.334 306.979 166.894C304.733 170.894 301.156 173.678 297.12 174.997C296.825 175.755 296.472 176.502 296.062 177.232C293.869 181.138 290.408 183.884 286.49 185.24C287.378 189.28 286.839 193.659 284.646 197.565C281.746 202.729 276.628 205.867 271.17 206.442C270.869 208.514 270.187 210.569 269.099 212.508C264.917 219.955 256.124 223.187 248.349 220.599C243.223 223.49 236.777 223.729 231.292 220.665C222.911 215.983 219.95 205.359 224.679 196.937C226.101 194.405 228.056 192.36 230.323 190.866C224.42 185.551 222.779 176.651 226.857 169.389C229.608 164.49 234.354 161.415 239.493 160.621C239.863 159.314 240.392 158.029 241.087 156.792C244.892 150.014 252.517 146.728 259.718 148.142C259.987 145.935 260.684 143.74 261.842 141.677C264.504 136.935 269.036 133.902 273.984 132.992C279.088 125.773 288.895 123.402 296.736 127.782C303.69 131.667 306.912 139.642 305.107 147.056Z" fill="#77B659"/>
<path fill-rule="evenodd" clip-rule="evenodd" d="M103.526 179.893C101.448 186.239 103.102 194.005 108.168 199.247C111.258 202.444 115.062 204.128 118.785 204.295C119.264 204.936 119.785 205.551 120.349 206.134C123.366 209.256 127.063 210.934 130.701 211.168C131.23 215.246 133.037 219.263 136.054 222.384C140.043 226.511 145.221 228.116 149.88 227.193C150.773 229.082 151.972 230.852 153.47 232.401C159.222 238.352 167.447 239.058 173.023 234.507C178.131 235.875 183.497 234.368 187.045 229.981C192.467 223.276 191.588 212.385 185.083 205.654C183.128 203.63 180.886 202.213 178.56 201.403C181.75 194.764 180.325 185.866 174.716 180.061C170.932 176.146 166.078 174.501 161.612 175.129C160.902 173.987 160.067 172.908 159.111 171.919C153.877 166.503 146.594 165.431 141.124 168.713C140.215 166.688 138.96 164.789 137.366 163.14C133.704 159.351 129.039 157.688 124.694 158.155C118.256 152.667 109.467 153.053 104.395 159.325C99.8968 164.888 99.7354 173.333 103.526 179.893Z" fill="#77B659"/>
<path fill-rule="evenodd" clip-rule="evenodd" d="M116.725 172.208C118.5 178.645 124.17 184.204 131.289 185.773C135.631 186.73 139.732 186.031 142.927 184.114C143.681 184.383 144.455 184.607 145.247 184.782C149.487 185.716 153.495 185.072 156.657 183.257C159.352 186.363 163.077 188.712 167.316 189.646C172.921 190.882 178.124 189.357 181.497 186.014C183.285 187.094 185.263 187.907 187.367 188.37C195.449 190.152 202.695 186.195 204.826 179.32C209.84 177.638 213.48 173.416 214.012 167.799C214.826 159.215 208.075 150.623 198.934 148.608C196.186 148.003 193.534 148.06 191.148 148.67C190.138 141.374 184.033 134.746 176.15 133.008C170.833 131.836 165.879 133.147 162.504 136.139C161.28 135.579 159.989 135.141 158.646 134.845C151.29 133.224 144.628 136.355 141.882 142.113C140.006 140.927 137.91 140.039 135.671 139.545C130.525 138.411 125.718 139.603 122.354 142.393C113.956 141.377 106.845 146.556 106.083 154.586C105.408 161.708 109.941 168.836 116.725 172.208Z" fill="#77B659"/>
<path fill-rule="evenodd" clip-rule="evenodd" d="M164.021 223.887C165.796 230.324 171.466 235.883 178.585 237.453C182.927 238.41 187.028 237.711 190.224 235.793C190.977 236.062 191.751 236.286 192.544 236.461C196.783 237.396 200.791 236.751 203.953 234.936C206.648 238.042 210.373 240.391 214.612 241.326C220.217 242.561 225.42 241.037 228.794 237.693C230.581 238.774 232.559 239.586 234.663 240.05C242.746 241.831 249.991 237.874 252.123 231C257.136 229.317 260.776 225.095 261.308 219.478C262.122 210.895 255.371 202.303 246.23 200.288C243.482 199.682 240.83 199.74 238.444 200.35C237.434 193.053 231.329 186.425 223.446 184.687C218.129 183.515 213.175 184.827 209.8 187.818C208.577 187.259 207.285 186.821 205.942 186.525C198.586 184.903 191.924 188.035 189.178 193.793C187.302 192.606 185.206 191.718 182.967 191.224C177.821 190.09 173.014 191.282 169.651 194.072C161.252 193.057 154.141 198.235 153.38 206.265C152.705 213.387 157.237 220.515 164.021 223.887Z" fill="#77B659"/>
<path fill-rule="evenodd" clip-rule="evenodd" d="M185.875 302.071C188.216 286.563 183.955 247.7 177.5 236C179.881 226.044 180.107 223.208 180.449 223.194C180.897 223.176 181.545 228 187.5 228C190.946 228 190.627 229.46 190.26 231.133C189.769 233.375 189.195 236 197.5 236L217.5 213C210.362 239.173 213.727 262.132 216.311 279.762C217.524 288.04 218.565 295.143 218.265 300.852C219.49 302.286 220.512 304.234 221.769 306.63C223.858 310.613 226.598 315.836 232 322C228.346 324.501 222.271 322.31 216.745 320.317C213.435 319.123 210.323 318 208.046 318C202.183 318 207.636 327.312 211.175 333.356C211.303 333.575 211.429 333.79 211.552 334L208.046 338C207.019 336.886 205.76 334.967 204.304 332.746C200.24 326.55 194.633 318 188.182 318H165.397C156.049 318 160.723 314.667 165.397 311.333C167.447 309.871 170.733 308.538 174.811 306.882C178.069 305.56 181.832 304.033 185.875 302.071Z" fill="#874F1C"/>
<path fill-rule="evenodd" clip-rule="evenodd" d="M206.229 244.427C201.787 244.789 199.762 242.987 194.917 237.302C197.445 233.288 200.66 228.713 204.14 224.003C202.04 215.57 200.283 190.143 203.868 185.569C207.271 181.228 209.615 181.515 210.362 182.201C208.54 188.483 207.899 194.789 208.392 200.561C208.44 201.122 208.946 202.977 209.64 205.524C210.282 207.876 211.084 210.818 211.836 213.879C216.487 207.899 221.081 202.193 224.743 197.646C228.653 192.789 231.5 189.253 232.217 188.115C239.579 176.426 245.988 162.907 250.729 148.689C252.559 147.735 256.143 148.623 255.84 159.808C255.668 166.144 246.374 184.043 235.849 201.756C237.076 201.18 238.238 200.651 239.226 200.202L239.226 200.201L239.226 200.201C240.762 199.502 241.88 198.993 242.18 198.792C245.263 196.723 248.199 193.932 250.689 190.621C251.308 190.684 252.313 191.622 251.379 194.873C250.272 198.725 233.419 210.014 230.51 210.558C219.37 228.567 208.321 244.256 206.229 244.427Z" fill="#874F1C"/>
<path fill-rule="evenodd" clip-rule="evenodd" d="M186.244 241.055C189.06 241.767 190.67 240.903 194.751 238.004C193.781 235.298 192.458 232.176 190.987 228.944C193.747 224.08 199.106 208.908 197.544 205.746C196.061 202.744 194.496 202.658 193.899 202.99C194.035 206.988 193.403 210.871 192.126 214.304C192.001 214.638 191.366 215.703 190.494 217.165C189.688 218.515 188.68 220.205 187.685 221.971C185.666 217.841 183.639 213.883 182.023 210.728L182.023 210.728L182.023 210.728C180.298 207.359 179.041 204.906 178.766 204.139C175.94 196.257 174.035 187.375 173.325 178.257C172.299 177.477 169.831 177.616 168.171 184.409C167.23 188.258 170.276 200.106 174.15 211.98C173.451 211.495 172.787 211.047 172.222 210.665L172.221 210.665C171.343 210.072 170.704 209.641 170.543 209.486C168.89 207.893 167.453 205.881 166.39 203.603C165.979 203.572 165.173 204.028 165.238 206.096C165.315 208.547 174.352 217.24 176.145 217.892C180.369 230.012 184.917 240.72 186.244 241.055Z" fill="#874F1C"/>
<path d="M194.5 325.315H141.226L147.993 318.88C144.29 309.724 142.794 306.519 141.726 304.23C138.263 296.812 148.093 309.759 152.26 315.998C151.323 312.21 151.777 306.281 153.691 304.23C155.115 309.724 159.275 316.133 163.377 316.133C165.371 316.133 165.371 309.724 165.371 304.23C167.651 309.724 167.746 312.165 167.651 316.133C168.695 317.049 170.784 318.33 170.784 316.133C170.784 313.386 169.645 306.519 172.209 304.23C172.209 309.724 172.684 313.081 174.773 316.133H181.04C183.501 316.133 181.238 308.12 184.075 304.642C184.163 304.412 184.289 304.269 184.459 304.23C184.322 304.359 184.194 304.497 184.075 304.642C183.334 306.576 185.265 314.653 186.453 318.88C187.308 313.844 188.846 304.963 188.163 309.724C187.479 314.485 191.936 322.873 194.5 325.315Z" fill="#75D04B"/>
<path d="M212 329H238.637L235.503 325.076C237.355 316.356 238.103 313.304 238.637 311.124C240.368 304.059 235.454 316.39 233.37 322.332C233.838 318.724 233.612 313.077 232.655 311.124C231.942 316.356 229.863 322.46 227.811 322.46C226.814 322.46 226.814 316.356 226.814 311.124C225.675 316.356 225.627 318.681 225.675 322.46C225.152 323.332 224.108 324.553 224.108 322.46C224.108 319.844 224.678 313.304 223.396 311.124C223.396 316.356 223.158 319.553 222.114 322.46H218.98C217.749 322.46 218.881 314.829 217.463 311.517C217.418 311.297 217.355 311.161 217.27 311.124C217.339 311.247 217.403 311.378 217.463 311.517C217.833 313.358 216.867 321.05 216.273 325.076C215.846 320.28 215.077 311.821 215.419 316.356C215.761 320.89 213.282 326.675 212 329Z" fill="#75D04B"/>
<path d="M171 344.685H197.637L194.503 340.565C196.355 331.409 197.103 328.204 197.637 325.915C199.368 318.497 194.454 331.444 192.37 337.683C192.838 333.896 192.612 327.966 191.655 325.915C190.942 331.409 188.863 337.818 186.811 337.818C185.814 337.818 185.814 331.409 185.814 325.915C184.675 331.409 184.627 333.85 184.675 337.818C184.152 338.734 183.108 340.016 183.108 337.818C183.108 335.071 183.678 328.204 182.396 325.915C182.396 331.409 182.158 334.766 181.114 337.818H177.98C176.749 337.818 177.881 329.806 176.463 326.328C176.418 326.097 176.355 325.954 176.27 325.915C176.339 326.044 176.403 326.182 176.463 326.328C176.833 328.261 175.867 336.338 175.273 340.565C174.846 335.529 174.077 326.648 174.419 331.409C174.761 336.17 172.282 342.244 171 344.685Z" fill="#75D04B"/>
</svg>
