<svg width="393" height="401" viewBox="0 0 393 401" fill="none" xmlns="http://www.w3.org/2000/svg">
<ellipse cx="202.5" cy="203" rx="179.5" ry="176" fill="#EAFBFF"/>
<path d="M354 300H34C84 363 129 383 208 391C271.2 397.4 331.667 333 354 300Z" fill="#75D04B"/>
<path fill-rule="evenodd" clip-rule="evenodd" d="M196.5 401C305.024 401 393 313.024 393 204.5C393 95.976 305.024 8 196.5 8C87.976 8 0 95.976 0 204.5C0 313.024 87.976 401 196.5 401ZM196 376C290.993 376 368 298.993 368 204C368 109.007 290.993 32 196 32C101.007 32 24 109.007 24 204C24 298.993 101.007 376 196 376Z" fill="#5A72EF"/>
<path fill-rule="evenodd" clip-rule="evenodd" d="M137.195 38.1647C133.098 31.3819 125.081 27.5206 116.842 29.0931C111.817 30.0522 107.613 32.86 104.801 36.6776C103.895 36.7214 102.98 36.8292 102.063 37.0042C97.1574 37.9405 93.0344 40.6389 90.2246 44.3187C86.2569 41.9325 81.4299 40.9424 76.5242 41.8787C70.0372 43.1169 64.9188 47.4361 62.3956 53.0314C60.0949 52.6118 57.6793 52.6019 55.2444 53.0667C45.8904 54.852 39.3822 63.0436 39.3967 72.2299C34.5364 76.6455 32.0217 83.4111 33.3429 90.3336C35.362 100.912 45.5745 107.851 56.153 105.832C59.3335 105.225 62.185 103.877 64.563 102.002C68.1215 110.173 76.9715 115.093 86.0938 113.352C92.2468 112.178 97.1685 108.231 99.8122 103.053C101.326 103.126 102.872 103.023 104.427 102.726C112.939 101.102 119.095 94.1713 120.123 86.014C122.555 86.5164 125.125 86.5593 127.716 86.0647C133.671 84.928 138.473 81.1945 141.173 76.2609C150.609 73.4139 156.56 63.8379 154.671 53.9414C152.996 45.1643 145.68 38.8928 137.195 38.1647Z" fill="#75D04B"/>
<path fill-rule="evenodd" clip-rule="evenodd" d="M246.898 18.4226C245.439 10.6339 239.286 4.20643 231.018 2.78992C225.976 1.92601 221.055 3.08139 217.082 5.6703C216.218 5.3935 215.324 5.17376 214.404 5.01609C209.481 4.17267 204.674 5.25389 200.752 7.71469C197.873 4.08867 193.7 1.46873 188.777 0.625308C182.268 -0.489973 175.96 1.7601 171.635 6.11526C169.627 4.91553 167.369 4.05924 164.925 3.64062C155.539 2.03243 146.572 7.42162 143.364 16.0297C137.264 18.4604 132.536 23.9146 131.346 30.8609C129.527 41.4757 136.658 51.5551 147.273 53.3739C150.464 53.9207 153.607 53.6585 156.492 52.7359C156.959 61.6361 163.522 69.3473 172.675 70.9157C178.85 71.9735 184.843 70.0037 189.134 66.0815C190.526 66.6809 192.011 67.1265 193.57 67.3937C202.112 68.8573 210.307 64.5257 214.13 57.2467C216.232 58.5701 218.623 59.5114 221.223 59.9569C227.199 60.9808 233.005 59.1683 237.263 55.4945C247.099 56.1374 256.03 49.2564 257.732 39.326C259.241 30.5187 254.589 22.0801 246.898 18.4226Z" fill="#75D04B"/>
<path fill-rule="evenodd" clip-rule="evenodd" d="M249.104 34.7054C252.926 27.762 260.814 23.5846 269.162 24.8316C274.253 25.5921 278.599 28.2334 281.592 31.9394C282.505 31.9474 283.428 32.019 284.357 32.1578C289.328 32.9003 293.588 35.4354 296.572 39.0037C300.455 36.4612 305.263 35.2806 310.233 36.0231C316.806 37.0049 322.137 41.1213 324.916 46.6161C327.21 46.1057 329.637 46.0005 332.104 46.369C341.581 47.7847 348.478 55.718 348.863 64.9035C353.939 69.1265 356.761 75.7918 355.734 82.7654C354.166 93.4221 344.205 100.763 333.487 99.1622C330.265 98.6808 327.341 97.446 324.87 95.6646C321.649 103.975 312.97 109.244 303.727 107.863C297.493 106.932 292.376 103.181 289.494 98.1079C287.976 98.2409 286.417 98.1987 284.842 97.9635C276.218 96.6751 269.73 89.9889 268.342 81.8734C265.92 82.4717 263.34 82.6161 260.714 82.2239C254.68 81.3226 249.692 77.7793 246.765 72.953C237.158 70.4791 230.762 61.1395 232.229 51.17C233.53 42.328 240.609 35.7685 249.104 34.7054Z" fill="#75D04B"/>
<path fill-rule="evenodd" clip-rule="evenodd" d="M354.801 111.187C359.933 117.226 361.034 126.084 356.902 133.444C354.382 137.932 350.368 141.056 345.841 142.536C345.509 143.387 345.113 144.224 344.654 145.044C342.193 149.426 338.309 152.507 333.913 154.028C334.91 158.561 334.305 163.474 331.844 167.856C328.591 173.651 322.848 177.171 316.724 177.816C316.386 180.141 315.622 182.447 314.401 184.622C309.709 192.978 299.843 196.604 291.12 193.7C285.369 196.944 278.136 197.212 271.982 193.775C262.579 188.521 259.257 176.602 264.563 167.153C266.158 164.312 268.351 162.017 270.895 160.34C264.271 154.377 262.431 144.392 267.006 136.243C270.092 130.747 275.418 127.297 281.184 126.406C281.599 124.94 282.192 123.498 282.972 122.11C287.241 114.506 295.797 110.818 303.875 112.405C304.177 109.928 304.959 107.465 306.259 105.151C309.246 99.8308 314.33 96.4279 319.882 95.407C325.609 87.3068 336.612 84.6468 345.409 89.5616C353.211 93.9206 356.827 102.868 354.801 111.187Z" fill="#75D04B"/>
<path fill-rule="evenodd" clip-rule="evenodd" d="M30.6462 116.187C26.213 122.226 25.2618 131.084 28.8315 138.444C31.0087 142.932 34.4758 146.056 38.3869 147.536C38.6736 148.387 39.015 149.224 39.4123 150.044C41.5378 154.426 44.8929 157.507 48.6901 159.028C47.8293 163.561 48.352 168.474 50.4775 172.856C53.2881 178.651 58.2487 182.171 63.5388 182.816C63.8308 185.141 64.4909 187.447 65.5459 189.622C69.5987 197.978 78.1218 201.604 85.6569 198.7C90.6252 201.944 96.8733 202.212 102.189 198.775C110.312 193.521 113.182 181.602 108.598 172.153C107.22 169.312 105.326 167.017 103.129 165.34C108.85 159.377 110.44 149.392 106.488 141.243C103.822 135.747 99.2215 132.297 94.2406 131.406C93.882 129.94 93.3695 128.498 92.696 127.11C89.0077 119.506 81.6173 115.818 74.6384 117.405C74.3778 114.928 73.7023 112.465 72.5795 110.151C69.9992 104.831 65.6068 101.428 60.811 100.407C55.8641 92.3068 46.359 89.6469 38.7596 94.5616C32.0197 98.9206 28.8965 107.868 30.6462 116.187Z" fill="#75D04B"/>
<path fill-rule="evenodd" clip-rule="evenodd" d="M106.884 175.466C108.876 182.688 115.237 188.925 123.225 190.686C128.097 191.76 132.697 190.976 136.283 188.824C137.128 189.126 137.997 189.378 138.886 189.574C143.642 190.622 148.14 189.899 151.687 187.862C154.71 191.348 158.89 193.983 163.646 195.032C169.935 196.418 175.773 194.708 179.558 190.956C181.563 192.168 183.782 193.08 186.143 193.6C195.212 195.599 203.341 191.159 205.732 183.446C211.358 181.558 215.441 176.822 216.039 170.519C216.951 160.888 209.377 151.248 199.121 148.988C196.038 148.308 193.063 148.373 190.385 149.057C189.252 140.871 182.402 133.434 173.558 131.484C167.593 130.169 162.034 131.64 158.247 134.997C156.874 134.369 155.425 133.878 153.918 133.546C145.665 131.726 138.19 135.24 135.11 141.7C133.005 140.369 130.653 139.373 128.141 138.819C122.367 137.546 116.974 138.883 113.2 142.014C103.777 140.875 95.7982 146.684 94.9443 155.694C94.1869 163.685 99.2721 171.682 106.884 175.466Z" fill="#75D04B"/>
<path fill-rule="evenodd" clip-rule="evenodd" d="M179.61 180.297C181.601 187.52 187.962 193.757 195.95 195.518C200.822 196.592 205.423 195.807 209.008 193.656C209.853 193.958 210.722 194.209 211.611 194.405C216.368 195.454 220.865 194.731 224.412 192.694C227.436 196.18 231.616 198.815 236.372 199.863C242.661 201.25 248.498 199.539 252.283 195.788C254.289 197 256.508 197.911 258.868 198.432C267.937 200.431 276.066 195.991 278.458 188.278C284.083 186.39 288.167 181.653 288.764 175.351C289.677 165.72 282.103 156.08 271.847 153.819C268.763 153.14 265.788 153.204 263.111 153.889C261.978 145.702 255.128 138.266 246.284 136.316C240.318 135.001 234.759 136.472 230.973 139.828C229.6 139.201 228.151 138.71 226.644 138.377C218.391 136.558 210.916 140.072 207.836 146.532C205.73 145.201 203.379 144.204 200.866 143.65C195.093 142.378 189.7 143.715 185.926 146.846C176.503 145.706 168.524 151.516 167.67 160.526C166.913 168.517 171.998 176.514 179.61 180.297Z" fill="#75D04B"/>
<path fill-rule="evenodd" clip-rule="evenodd" d="M139.257 48.9696C135.161 42.1869 127.143 38.3255 118.904 39.8981C113.879 40.8572 109.676 43.665 106.863 47.4825C105.957 47.5264 105.043 47.6341 104.125 47.8092C99.2197 48.7455 95.0968 51.4439 92.2869 55.1237C88.3193 52.7375 83.4923 51.7473 78.5865 52.6837C72.0995 53.9218 66.9812 58.241 64.4579 63.8363C62.1572 63.4167 59.7417 63.4069 57.3067 63.8716C47.9527 65.657 41.4445 73.8486 41.4591 83.0349C36.5987 87.4504 34.084 94.2161 35.4052 101.139C37.4243 111.717 47.6368 118.656 58.2154 116.637C61.3958 116.03 64.2473 114.682 66.6253 112.807C70.1838 120.978 79.0338 125.898 88.1561 124.157C94.3092 122.983 99.2308 119.036 101.875 113.858C103.388 113.931 104.935 113.828 106.489 113.531C115.002 111.907 121.157 104.976 122.185 96.819C124.617 97.3213 127.187 97.3643 129.778 96.8697C135.734 95.733 140.536 91.9995 143.235 87.0658C152.672 84.2188 158.623 74.6428 156.734 64.7464C155.058 55.9692 147.743 49.6978 139.257 48.9696Z" fill="#77B659"/>
<path fill-rule="evenodd" clip-rule="evenodd" d="M245.04 29.2646C243.582 21.4759 237.428 15.0484 229.161 13.6319C224.118 12.768 219.197 13.9234 215.224 16.5123C214.36 16.2355 213.466 16.0158 212.546 15.8581C207.623 15.0147 202.816 16.0959 198.894 18.5567C196.015 14.9307 191.842 12.3107 186.919 11.4673C180.41 10.352 174.102 12.6021 169.777 16.9573C167.77 15.7575 165.511 14.9013 163.068 14.4826C153.682 12.8744 144.714 18.2636 141.506 26.8717C135.406 29.3024 130.679 34.7567 129.488 41.7029C127.67 52.3177 134.8 62.3972 145.415 64.2159C148.607 64.7627 151.75 64.5005 154.634 63.5779C155.102 72.4782 161.664 80.1893 170.818 81.7577C176.992 82.8156 182.985 80.8457 187.277 76.9235C188.668 77.5229 190.153 77.9685 191.713 78.2358C200.254 79.6993 208.45 75.3677 212.272 68.0887C214.374 69.4121 216.765 70.3534 219.366 70.7989C225.342 71.8228 231.148 70.0103 235.406 66.3365C245.242 66.9794 254.173 60.0984 255.874 50.168C257.383 41.3607 252.731 32.9221 245.04 29.2646Z" fill="#77B659"/>
<path fill-rule="evenodd" clip-rule="evenodd" d="M247.502 45.5902C251.324 38.6467 259.212 34.4694 267.56 35.7163C272.651 36.4768 276.997 39.1182 279.99 42.8241C280.902 42.8322 281.826 42.9038 282.755 43.0426C287.726 43.785 291.986 46.3202 294.97 49.8885C298.853 47.346 303.66 46.1654 308.631 46.9078C315.204 47.8896 320.535 52.0061 323.314 57.5009C325.608 56.9905 328.035 56.8852 330.502 57.2538C339.979 58.6695 346.876 66.6028 347.261 75.7883C352.337 80.0113 355.159 86.6766 354.132 93.6502C352.564 104.307 342.603 111.648 331.885 110.047C328.663 109.566 325.739 108.331 323.267 106.549C320.047 114.86 311.368 120.129 302.125 118.748C295.891 117.817 290.774 114.066 287.892 108.993C286.374 109.126 284.815 109.083 283.24 108.848C274.615 107.56 268.128 100.874 266.74 92.7582C264.318 93.3565 261.738 93.5009 259.112 93.1087C253.078 92.2073 248.09 88.6641 245.163 83.8377C235.556 81.3638 229.159 72.0243 230.627 62.0547C231.928 53.2128 239.007 46.6533 247.502 45.5902Z" fill="#77B659"/>
<path fill-rule="evenodd" clip-rule="evenodd" d="M345.196 105.821C350.328 111.86 351.43 120.718 347.297 128.078C344.777 132.566 340.763 135.69 336.236 137.17C335.904 138.021 335.509 138.858 335.049 139.677C332.588 144.06 328.704 147.141 324.309 148.662C325.305 153.195 324.7 158.108 322.24 162.49C318.986 168.285 313.243 171.805 307.12 172.45C306.782 174.775 306.017 177.081 304.796 179.256C300.105 187.612 290.238 191.238 281.515 188.334C275.764 191.578 268.531 191.846 262.378 188.409C252.974 183.155 249.652 171.236 254.958 161.787C256.553 158.946 258.747 156.651 261.29 154.974C254.667 149.011 252.826 139.026 257.401 130.877C260.488 125.381 265.813 121.931 271.579 121.04C271.994 119.574 272.587 118.132 273.367 116.744C277.636 109.14 286.192 105.452 294.271 107.039C294.572 104.562 295.354 102.099 296.654 99.7846C299.641 94.4648 304.726 91.0619 310.277 90.041C316.004 81.9408 327.007 79.2808 335.804 84.1956C343.606 88.5546 347.222 97.5022 345.196 105.821Z" fill="#77B659"/>
<path fill-rule="evenodd" clip-rule="evenodd" d="M38.9432 110.821C34.5101 116.86 33.5588 125.718 37.1285 133.078C39.3057 137.566 42.7728 140.69 46.6839 142.17C46.9706 143.021 47.312 143.858 47.7093 144.678C49.8348 149.06 53.1899 152.141 56.9871 153.662C56.1263 158.195 56.649 163.108 58.7745 167.49C61.5852 173.285 66.5458 176.805 71.8358 177.45C72.1279 179.775 72.788 182.081 73.843 184.256C77.8958 192.612 86.4188 196.238 93.9539 193.334C98.9222 196.578 105.17 196.846 110.486 193.409C118.609 188.155 121.479 176.236 116.895 166.787C115.517 163.946 113.623 161.651 111.426 159.974C117.147 154.011 118.737 144.026 114.785 135.877C112.119 130.381 107.519 126.931 102.538 126.04C102.179 124.574 101.666 123.132 100.993 121.744C97.3048 114.14 89.9143 110.452 82.9354 112.039C82.6748 109.562 81.9993 107.099 80.8765 104.785C78.2962 99.4648 73.9038 96.0619 69.1081 95.041C64.1612 86.9408 54.656 84.2808 47.0567 89.1956C40.3168 93.5546 37.1935 102.502 38.9432 110.821Z" fill="#77B659"/>
<path fill-rule="evenodd" clip-rule="evenodd" d="M107.817 165.629C109.808 172.851 116.169 179.088 124.157 180.849C129.029 181.923 133.629 181.139 137.215 178.987C138.06 179.289 138.929 179.541 139.818 179.737C144.574 180.785 149.072 180.062 152.619 178.025C155.643 181.511 159.822 184.146 164.578 185.195C170.868 186.581 176.705 184.871 180.49 181.119C182.496 182.331 184.714 183.243 187.075 183.763C196.144 185.762 204.273 181.322 206.665 173.609C212.29 171.721 216.374 166.985 216.971 160.682C217.884 151.052 210.31 141.411 200.054 139.151C196.97 138.471 193.995 138.536 191.317 139.22C190.184 131.034 183.335 123.597 174.49 121.647C168.525 120.332 162.966 121.804 159.179 125.16C157.807 124.532 156.358 124.041 154.851 123.709C146.598 121.889 139.123 125.403 136.042 131.863C133.937 130.532 131.586 129.536 129.073 128.982C123.299 127.709 117.906 129.046 114.132 132.177C104.71 131.038 96.7306 136.848 95.8766 145.857C95.1192 153.848 100.204 161.845 107.817 165.629Z" fill="#77B659"/>
<path fill-rule="evenodd" clip-rule="evenodd" d="M177.61 176.46C179.601 183.683 185.962 189.92 193.95 191.681C198.822 192.755 203.423 191.971 207.008 189.819C207.853 190.121 208.722 190.372 209.611 190.568C214.368 191.617 218.865 190.894 222.412 188.857C225.436 192.343 229.616 194.978 234.372 196.026C240.661 197.413 246.498 195.702 250.283 191.951C252.289 193.163 254.508 194.074 256.868 194.595C265.937 196.594 274.066 192.154 276.458 184.441C282.083 182.553 286.167 177.816 286.764 171.514C287.677 161.883 280.103 152.243 269.847 149.982C266.763 149.303 263.788 149.367 261.111 150.052C259.978 141.866 253.128 134.429 244.284 132.479C238.318 131.164 232.759 132.635 228.973 135.991C227.6 135.364 226.151 134.873 224.644 134.54C216.391 132.721 208.916 136.235 205.836 142.695C203.73 141.364 201.379 140.367 198.867 139.814C193.093 138.541 187.7 139.878 183.926 143.009C174.503 141.869 166.524 147.679 165.67 156.689C164.913 164.68 169.998 172.677 177.61 176.46Z" fill="#77B659"/>
<path fill-rule="evenodd" clip-rule="evenodd" d="M88.6098 122.46C90.6014 129.683 96.9625 135.92 104.95 137.681C109.822 138.755 114.423 137.971 118.008 135.819C118.853 136.121 119.722 136.372 120.611 136.568C125.368 137.617 129.865 136.894 133.412 134.857C136.436 138.343 140.616 140.978 145.372 142.026C151.661 143.413 157.498 141.702 161.283 137.951C163.289 139.163 165.508 140.074 167.868 140.595C176.937 142.594 185.066 138.154 187.458 130.441C193.083 128.553 197.167 123.816 197.764 117.514C198.677 107.883 191.103 98.2432 180.847 95.9824C177.763 95.3027 174.788 95.3674 172.111 96.052C170.978 87.8655 164.128 80.4286 155.284 78.479C149.318 77.164 143.759 78.6352 139.973 81.9915C138.6 81.3641 137.151 80.8726 135.644 80.5404C127.391 78.7211 119.916 82.2347 116.836 88.6949C114.73 87.364 112.379 86.3674 109.867 85.8136C104.093 84.5408 98.6997 85.8781 94.9258 89.0086C85.5031 87.8694 77.5239 93.6793 76.6699 102.689C75.9126 110.68 80.9978 118.677 88.6098 122.46Z" fill="#77B659"/>
<path fill-rule="evenodd" clip-rule="evenodd" d="M135.61 101.46C137.601 108.683 143.962 114.92 151.95 116.681C156.822 117.755 161.423 116.971 165.008 114.819C165.853 115.121 166.722 115.372 167.611 115.568C172.368 116.617 176.865 115.894 180.412 113.857C183.436 117.343 187.616 119.978 192.372 121.026C198.661 122.413 204.498 120.702 208.283 116.951C210.289 118.163 212.508 119.074 214.868 119.595C223.937 121.594 232.066 117.154 234.458 109.441C240.083 107.553 244.167 102.816 244.764 96.5141C245.677 86.8832 238.103 77.2432 227.847 74.9824C224.763 74.3027 221.788 74.3674 219.111 75.052C217.978 66.8655 211.128 59.4286 202.284 57.479C196.318 56.164 190.759 57.6352 186.973 60.9915C185.6 60.3641 184.151 59.8726 182.644 59.5404C174.391 57.7211 166.916 61.2347 163.836 67.6949C161.73 66.364 159.379 65.3674 156.867 64.8136C151.093 63.5408 145.7 64.8781 141.926 68.0086C132.503 66.8694 124.524 72.6793 123.67 81.6891C122.913 89.6799 127.998 97.677 135.61 101.46Z" fill="#77B659"/>
<path fill-rule="evenodd" clip-rule="evenodd" d="M168.61 128.46C170.601 135.683 176.962 141.92 184.95 143.681C189.822 144.755 194.423 143.971 198.008 141.819C198.853 142.121 199.722 142.372 200.611 142.568C205.368 143.617 209.865 142.894 213.412 140.857C216.436 144.343 220.616 146.978 225.372 148.026C231.661 149.413 237.498 147.702 241.283 143.951C243.289 145.163 245.508 146.074 247.868 146.595C256.937 148.594 265.066 144.154 267.458 136.441C273.083 134.553 277.167 129.816 277.764 123.514C278.677 113.883 271.103 104.243 260.847 101.982C257.763 101.303 254.788 101.367 252.111 102.052C250.978 93.8655 244.128 86.4286 235.284 84.479C229.318 83.164 223.759 84.6352 219.973 87.9915C218.6 87.3641 217.151 86.8726 215.644 86.5404C207.391 84.7211 199.916 88.2347 196.836 94.6949C194.73 93.364 192.379 92.3674 189.867 91.8136C184.093 90.5408 178.7 91.8781 174.926 95.0086C165.503 93.8694 157.524 99.6793 156.67 108.689C155.913 116.68 160.998 124.677 168.61 128.46Z" fill="#77B659"/>
<path fill-rule="evenodd" clip-rule="evenodd" d="M192.61 98.4603C194.601 105.683 200.962 111.92 208.95 113.681C213.822 114.755 218.423 113.971 222.008 111.819C222.853 112.121 223.722 112.372 224.611 112.568C229.368 113.617 233.865 112.894 237.412 110.857C240.436 114.343 244.616 116.978 249.372 118.026C255.661 119.413 261.498 117.702 265.283 113.951C267.289 115.163 269.508 116.074 271.868 116.595C280.937 118.594 289.066 114.154 291.458 106.441C297.083 104.553 301.167 99.8163 301.764 93.5141C302.677 83.8832 295.103 74.2432 284.847 71.9824C281.763 71.3027 278.788 71.3674 276.111 72.052C274.978 63.8655 268.128 56.4286 259.284 54.479C253.318 53.164 247.759 54.6352 243.973 57.9915C242.6 57.3641 241.151 56.8726 239.644 56.5404C231.391 54.7211 223.916 58.2347 220.836 64.6949C218.73 63.364 216.379 62.3674 213.867 61.8136C208.093 60.5408 202.7 61.8781 198.926 65.0086C189.503 63.8694 181.524 69.6793 180.67 78.6891C179.913 86.6799 184.998 94.677 192.61 98.4603Z" fill="#77B659"/>
<path fill-rule="evenodd" clip-rule="evenodd" d="M220.787 307.147C228.339 308.002 231.061 312.55 235.488 319.945C239.064 325.92 243.753 333.753 253 343C246.746 346.752 236.347 343.465 226.889 340.475C221.224 338.684 215.896 337 212 337C201.964 337 211.297 350.968 217.355 360.034C217.575 360.363 217.79 360.685 218 361L212 367C210.241 365.329 208.087 362.451 205.594 359.119C198.639 349.825 189.042 337 178 337H139C123 337 131 332 139 327C142.509 324.807 148.133 322.807 155.114 320.324C159.474 318.773 164.364 317.033 169.598 314.941C176.125 287.881 180.434 201.792 166 195C155.946 190.269 156.035 186.936 156.132 183.348C156.198 180.869 156.268 178.269 153 175C150.982 172.982 151.396 173.165 154.018 174.319C159.71 176.825 175.807 183.913 200 183L229 195C219.708 229.071 216.751 283.714 220.787 307.147Z" fill="#874F1C"/>
<path fill-rule="evenodd" clip-rule="evenodd" d="M223.794 201.532C218.811 201.938 216.539 199.916 211.102 193.537C213.939 189.033 217.546 183.901 221.451 178.617C219.095 169.154 217.123 140.625 221.145 135.494C224.963 130.623 227.594 130.945 228.431 131.715C226.387 138.763 225.668 145.839 226.222 152.314C226.276 152.944 226.843 155.025 227.622 157.883C228.341 160.521 229.241 163.823 230.085 167.258C235.304 160.548 240.458 154.146 244.567 149.043C248.954 143.594 252.148 139.627 252.952 138.351C261.213 125.236 268.403 110.067 273.723 94.1149C275.776 93.0444 279.797 94.0407 279.457 106.59C279.264 113.699 268.837 133.782 257.027 153.656C258.405 153.009 259.708 152.416 260.817 151.911C262.54 151.127 263.794 150.556 264.131 150.33C267.59 148.008 270.884 144.877 273.678 141.162C274.372 141.232 275.5 142.285 274.452 145.933C273.21 150.255 254.301 162.921 251.038 163.531C238.538 183.737 226.142 201.34 223.794 201.532Z" fill="#874F1C"/>
<path fill-rule="evenodd" clip-rule="evenodd" d="M160.435 186.146C163.656 185.652 164.942 184.055 167.894 179.277C165.709 176.904 162.979 174.255 160.047 171.557C160.774 165.325 159.686 147.304 156.691 144.719C153.848 142.264 152.192 142.858 151.72 143.462C153.608 147.535 154.65 151.824 154.829 155.93C154.847 156.329 154.655 157.707 154.392 159.599C154.149 161.347 153.846 163.533 153.589 165.793C149.698 162.406 145.874 159.201 142.826 156.646C139.571 153.918 137.202 151.932 136.583 151.259C130.219 144.348 124.371 136.001 119.655 126.887C118.253 126.53 115.764 127.751 117.015 135.497C117.724 139.885 126.047 150.8 135.237 161.379C134.303 161.184 133.42 161.01 132.67 160.863L132.669 160.863L132.669 160.863C131.503 160.634 130.653 160.467 130.419 160.377C128.016 159.453 125.651 158.001 123.558 156.111C123.12 156.259 122.485 157.082 123.456 159.192C124.606 161.691 137.743 166.727 139.881 166.618C149.539 177.299 158.918 186.378 160.435 186.146Z" fill="#874F1C"/>
<path fill-rule="evenodd" clip-rule="evenodd" d="M193.399 195.359C196.553 196.177 198.366 195.219 202.965 191.996C201.896 188.953 200.434 185.441 198.807 181.804C201.938 176.366 208.059 159.382 206.329 155.823C204.687 152.445 202.931 152.337 202.258 152.705C202.383 157.192 201.646 161.544 200.189 165.387C200.047 165.761 199.326 166.951 198.337 168.585C197.424 170.094 196.281 171.982 195.152 173.957C192.916 169.309 190.67 164.853 188.88 161.302C186.967 157.51 185.575 154.749 185.272 153.886C182.157 145.023 180.084 135.045 179.352 124.809C178.206 123.926 175.437 124.065 173.525 131.675C172.442 135.986 175.775 149.302 180.037 162.651C179.256 162.102 178.515 161.594 177.883 161.162L177.883 161.162L177.883 161.162C176.902 160.49 176.188 160.002 176.008 159.827C174.165 158.028 172.567 155.76 171.391 153.197C170.93 153.16 170.022 153.665 170.08 155.986C170.149 158.737 180.227 168.554 182.233 169.298C186.886 182.927 191.913 194.973 193.399 195.359Z" fill="#874F1C"/>
<path d="M189 342H128.82L135.9 337.487C131.716 327.459 130.026 323.949 128.82 321.442C124.908 313.318 136.012 327.498 140.719 334.331C139.661 330.183 140.174 323.688 142.336 321.442C143.945 327.459 148.644 334.479 153.278 334.479C155.531 334.479 155.531 327.459 155.531 321.442C158.105 327.459 158.213 330.133 158.105 334.479C159.285 335.482 161.645 336.886 161.645 334.479C161.645 331.47 160.358 323.949 163.254 321.442C163.254 327.459 163.791 331.136 166.151 334.479H173.231C176.011 334.479 173.454 325.703 176.659 321.894C176.758 321.642 176.901 321.485 177.093 321.442C176.937 321.584 176.793 321.735 176.659 321.894C175.822 324.011 178.003 332.858 179.345 337.487C180.311 331.972 182.049 322.245 181.276 327.459C180.504 332.674 186.104 339.326 189 342Z" fill="#75D04B"/>
<path d="M209 347H238.597L235.115 342.487C237.172 332.459 238.003 328.949 238.597 326.442C240.52 318.318 235.06 332.498 232.745 339.331C233.265 335.183 233.013 328.688 231.949 326.442C231.158 332.459 228.847 339.479 226.568 339.479C225.46 339.479 225.46 332.459 225.46 326.442C224.194 332.459 224.141 335.133 224.194 339.479C223.614 340.482 222.453 341.886 222.453 339.479C222.453 336.47 223.086 328.949 221.662 326.442C221.662 332.459 221.398 336.136 220.237 339.479H216.755C215.388 339.479 216.645 330.703 215.07 326.894C215.021 326.642 214.95 326.485 214.856 326.442C214.932 326.584 215.003 326.735 215.07 326.894C215.481 329.012 214.408 337.858 213.748 342.487C213.273 336.972 212.419 327.245 212.799 332.459C213.178 337.674 210.424 344.326 209 347Z" fill="#75D04B"/>
<path d="M169 359H198.597L195.115 354.487C197.172 344.459 198.003 340.949 198.597 338.442C200.52 330.318 195.06 344.498 192.745 351.331C193.265 347.183 193.013 340.688 191.949 338.442C191.158 344.459 188.847 351.479 186.568 351.479C185.46 351.479 185.46 344.459 185.46 338.442C184.194 344.459 184.141 347.133 184.194 351.479C183.614 352.482 182.453 353.886 182.453 351.479C182.453 348.47 183.086 340.949 181.662 338.442C181.662 344.459 181.398 348.136 180.237 351.479H176.755C175.388 351.479 176.645 342.703 175.07 338.894C175.021 338.642 174.95 338.485 174.856 338.442C174.932 338.584 175.003 338.735 175.07 338.894C175.481 341.012 174.408 349.858 173.748 354.487C173.273 348.972 172.419 339.245 172.799 344.459C173.178 349.674 170.424 356.326 169 359Z" fill="#75D04B"/>
<path fill-rule="evenodd" clip-rule="evenodd" d="M76.8265 92.8702C73.919 87.6571 72.0267 81 78.6422 81C85.3322 81 82.5153 88.8448 79.707 93.9563C82.8868 88.6306 88.4056 82.6372 92.057 88.2892C95.24 93.2162 88.2624 95.1442 82.3699 95.7353C88.2474 97.3677 94.217 100.577 89.8129 104.972C85.2282 109.546 81.0747 102.244 79.0351 96.8211C80.9861 102.645 81.8519 110.526 74.9662 109.149C68.7903 107.915 72.4479 101.501 76.1408 97.0424C70.4023 98.5336 64.0139 98.6764 65.1275 92.9347C66.1667 87.5768 72.1034 89.8763 76.8265 92.8702Z" fill="#F9E9E9"/>
<path fill-rule="evenodd" clip-rule="evenodd" d="M91.8265 132.87C88.919 127.657 87.0267 121 93.6422 121C100.332 121 97.5153 128.845 94.707 133.956C97.8868 128.631 103.406 122.637 107.057 128.289C110.24 133.216 103.262 135.144 97.3699 135.735C103.247 137.368 109.217 140.577 104.813 144.972C100.228 149.546 96.0747 142.244 94.0351 136.821C95.9861 142.645 96.8519 150.526 89.9662 149.149C83.7903 147.915 87.4479 141.501 91.1408 137.042C85.4023 138.534 79.0139 138.676 80.1275 132.935C81.1667 127.577 87.1034 129.876 91.8265 132.87Z" fill="#F9E9E9"/>
<path fill-rule="evenodd" clip-rule="evenodd" d="M128.827 99.8702C125.919 94.6571 124.027 88 130.642 88C137.332 88 134.515 95.8448 131.707 100.956C134.887 95.6306 140.406 89.6372 144.057 95.2892C147.24 100.216 140.262 102.144 134.37 102.735C140.247 104.368 146.217 107.577 141.813 111.972C137.228 116.546 133.075 109.244 131.035 103.821C132.986 109.645 133.852 117.526 126.966 116.149C120.79 114.915 124.448 108.501 128.141 104.042C122.402 105.534 116.014 105.676 117.128 99.9347C118.167 94.5768 124.103 96.8763 128.827 99.8702Z" fill="#F9E9E9"/>
<path fill-rule="evenodd" clip-rule="evenodd" d="M162.827 75.8702C159.919 70.6571 158.027 64 164.642 64C171.332 64 168.515 71.8448 165.707 76.9563C168.887 71.6306 174.406 65.6372 178.057 71.2892C181.24 76.2162 174.262 78.1442 168.37 78.7353C174.247 80.3677 180.217 83.5774 175.813 87.9718C171.228 92.5463 167.075 85.2443 165.035 79.821C166.986 85.6452 167.852 93.526 160.966 92.1494C154.79 90.9147 158.448 84.5007 162.141 80.0424C156.402 81.5336 150.014 81.6764 151.128 75.9347C152.167 70.5768 158.103 72.8763 162.827 75.8702Z" fill="#F9E9E9"/>
<path fill-rule="evenodd" clip-rule="evenodd" d="M186.827 45.8702C183.919 40.6571 182.027 34 188.642 34C195.332 34 192.515 41.8448 189.707 46.9563C192.887 41.6306 198.406 35.6372 202.057 41.2892C205.24 46.2162 198.262 48.1442 192.37 48.7353C198.247 50.3677 204.217 53.5774 199.813 57.9718C195.228 62.5463 191.075 55.2443 189.035 49.821C190.986 55.6452 191.852 63.526 184.966 62.1494C178.79 60.9147 182.448 54.5007 186.141 50.0424C180.402 51.5336 174.014 51.6764 175.128 45.9347C176.167 40.5768 182.103 42.8763 186.827 45.8702Z" fill="#F9E9E9"/>
<path fill-rule="evenodd" clip-rule="evenodd" d="M242.827 59.8702C239.919 54.6571 238.027 48 244.642 48C251.332 48 248.515 55.8448 245.707 60.9563C248.887 55.6306 254.406 49.6372 258.057 55.2892C261.24 60.2162 254.262 62.1442 248.37 62.7353C254.247 64.3677 260.217 67.5774 255.813 71.9718C251.228 76.5463 247.075 69.2443 245.035 63.821C246.986 69.6452 247.852 77.526 240.966 76.1494C234.79 74.9147 238.448 68.5007 242.141 64.0424C236.402 65.5336 230.014 65.6764 231.128 59.9347C232.167 54.5768 238.103 56.8763 242.827 59.8702Z" fill="#F9E9E9"/>
<path fill-rule="evenodd" clip-rule="evenodd" d="M217.827 100.87C214.919 95.6571 213.027 89 219.642 89C226.332 89 223.515 96.8448 220.707 101.956C223.887 96.6306 229.406 90.6372 233.057 96.2892C236.24 101.216 229.262 103.144 223.37 103.735C229.247 105.368 235.217 108.577 230.813 112.972C226.228 117.546 222.075 110.244 220.035 104.821C221.986 110.645 222.852 118.526 215.966 117.149C209.79 115.915 213.448 109.501 217.141 105.042C211.402 106.534 205.014 106.676 206.128 100.935C207.167 95.5768 213.103 97.8763 217.827 100.87Z" fill="#F9E9E9"/>
<path fill-rule="evenodd" clip-rule="evenodd" d="M306.827 90.8702C303.919 85.6571 302.027 79 308.642 79C315.332 79 312.515 86.8448 309.707 91.9563C312.887 86.6306 318.406 80.6372 322.057 86.2892C325.24 91.2162 318.262 93.1442 312.37 93.7353C318.247 95.3677 324.217 98.5774 319.813 102.972C315.228 107.546 311.075 100.244 309.035 94.821C310.986 100.645 311.852 108.526 304.966 107.149C298.79 105.915 302.448 99.5007 306.141 95.0424C300.402 96.5336 294.014 96.6764 295.128 90.9347C296.167 85.5768 302.103 87.8763 306.827 90.8702Z" fill="#F9E9E9"/>
<path fill-rule="evenodd" clip-rule="evenodd" d="M296.827 137.87C293.919 132.657 292.027 126 298.642 126C305.332 126 302.515 133.845 299.707 138.956C302.887 133.631 308.406 127.637 312.057 133.289C315.24 138.216 308.262 140.144 302.37 140.735C308.247 142.368 314.217 145.577 309.813 149.972C305.228 154.546 301.075 147.244 299.035 141.821C300.986 147.645 301.852 155.526 294.966 154.149C288.79 152.915 292.448 146.501 296.141 142.042C290.402 143.534 284.014 143.676 285.128 137.935C286.167 132.577 292.103 134.876 296.827 137.87Z" fill="#F9E9E9"/>
<path d="M79.3822 92.6732L80.3227 94.6298L82.5951 94.3945L80.904 95.839L81.8445 97.7957L79.8588 96.7318L78.1677 98.1763L78.6316 96.0743L76.6459 95.0105L78.9183 94.7752L79.3822 92.6732Z" fill="#D66C6C"/>
<path d="M94.3822 132.673L95.3227 134.63L97.5951 134.395L95.904 135.839L96.8445 137.796L94.8588 136.732L93.1677 138.176L93.6316 136.074L91.6459 135.01L93.9183 134.775L94.3822 132.673Z" fill="#D66C6C"/>
<path d="M131.382 99.6732L132.323 101.63L134.595 101.395L132.904 102.839L133.844 104.796L131.859 103.732L130.168 105.176L130.632 103.074L128.646 102.01L130.918 101.775L131.382 99.6732Z" fill="#D66C6C"/>
<path d="M165.382 75.6732L166.323 77.6298L168.595 77.3945L166.904 78.839L167.844 80.7957L165.859 79.7318L164.168 81.1763L164.632 79.0743L162.646 78.0105L164.918 77.7752L165.382 75.6732Z" fill="#D66C6C"/>
<path d="M189.382 45.6732L190.323 47.6298L192.595 47.3945L190.904 48.839L191.844 50.7957L189.859 49.7318L188.168 51.1763L188.632 49.0743L186.646 48.0105L188.918 47.7752L189.382 45.6732Z" fill="#D66C6C"/>
<path d="M245.382 59.6732L246.323 61.6298L248.595 61.3945L246.904 62.839L247.844 64.7957L245.859 63.7318L244.168 65.1763L244.632 63.0743L242.646 62.0105L244.918 61.7752L245.382 59.6732Z" fill="#D66C6C"/>
<path d="M220.382 100.673L221.323 102.63L223.595 102.395L221.904 103.839L222.844 105.796L220.859 104.732L219.168 106.176L219.632 104.074L217.646 103.01L219.918 102.775L220.382 100.673Z" fill="#D66C6C"/>
<path d="M309.382 90.6732L310.323 92.6298L312.595 92.3945L310.904 93.839L311.844 95.7957L309.859 94.7318L308.168 96.1763L308.632 94.0743L306.646 93.0105L308.918 92.7752L309.382 90.6732Z" fill="#D66C6C"/>
<path d="M299.382 137.673L300.323 139.63L302.595 139.395L300.904 140.839L301.844 142.796L299.859 141.732L298.168 143.176L298.632 141.074L296.646 140.01L298.918 139.775L299.382 137.673Z" fill="#D66C6C"/>
</svg>
