<svg width="393" height="393" viewBox="0 0 393 393" fill="none" xmlns="http://www.w3.org/2000/svg">
<path d="M354 292H34C84 355 129 375 208 383C271.2 389.4 331.667 325 354 292Z" fill="#75D04B"/>
<path fill-rule="evenodd" clip-rule="evenodd" d="M196.5 393C305.024 393 393 305.024 393 196.5C393 87.976 305.024 0 196.5 0C87.976 0 0 87.976 0 196.5C0 305.024 87.976 393 196.5 393ZM196 368C290.993 368 368 290.993 368 196C368 101.007 290.993 24 196 24C101.007 24 24 101.007 24 196C24 290.993 101.007 368 196 368Z" fill="#5A72EF"/>
<path fill-rule="evenodd" clip-rule="evenodd" d="M201.605 306.161C198.097 308.909 195.414 308.52 188.239 306.442C188.139 301.699 188.304 296.11 188.616 290.262C182.219 284.379 166.751 264.121 167.225 258.329C167.675 252.831 169.79 251.78 170.791 251.942C172.729 258.189 175.667 263.806 179.257 268.352C179.606 268.794 181.049 270.064 183.031 271.808C184.862 273.418 187.152 275.432 189.465 277.574C190.054 270.021 190.748 262.728 191.3 256.915C191.89 250.708 192.319 246.189 192.291 244.845C192 231.033 189.906 216.219 186.035 201.74C187.037 199.936 190.518 198.704 196.423 208.207C199.769 213.591 201.867 233.65 202.834 254.232C203.542 253.075 204.22 251.994 204.797 251.074L204.797 251.074L204.797 251.074C205.694 249.645 206.347 248.604 206.487 248.271C207.921 244.846 208.835 240.9 209.09 236.765C209.642 236.476 210.997 236.706 212.008 239.935C213.205 243.759 205.353 262.463 203.225 264.518C203.841 285.686 203.258 304.866 201.605 306.161Z" fill="#874F1C"/>
<path d="M190.5 332.315H137.226L143.993 325.88C140.29 316.724 138.794 313.519 137.726 311.23C134.263 303.812 144.093 316.759 148.26 322.998C147.323 319.21 147.777 313.281 149.691 311.23C151.115 316.724 155.275 323.133 159.377 323.133C161.371 323.133 161.371 316.724 161.371 311.23C163.651 316.724 163.746 319.165 163.651 323.133C164.695 324.049 166.784 325.33 166.784 323.133C166.784 320.386 165.645 313.519 168.209 311.23C168.209 316.724 168.684 320.081 170.773 323.133H177.04C179.501 323.133 177.238 315.12 180.075 311.642C180.163 311.412 180.289 311.269 180.459 311.23C180.322 311.359 180.194 311.497 180.075 311.642C179.334 313.576 181.265 321.653 182.453 325.88C183.308 320.844 184.846 311.963 184.163 316.724C183.479 321.485 187.936 329.873 190.5 332.315Z" fill="#75D04B"/>
<path d="M185 312H211.637L208.503 308.076C210.355 299.356 211.103 296.304 211.637 294.124C213.368 287.059 208.454 299.39 206.37 305.332C206.838 301.724 206.612 296.077 205.655 294.124C204.942 299.356 202.863 305.46 200.811 305.46C199.814 305.46 199.814 299.356 199.814 294.124C198.675 299.356 198.627 301.681 198.675 305.46C198.152 306.332 197.108 307.553 197.108 305.46C197.108 302.844 197.678 296.304 196.396 294.124C196.396 299.356 196.158 302.553 195.114 305.46H191.98C190.749 305.46 191.881 297.829 190.463 294.517C190.418 294.297 190.355 294.161 190.27 294.124C190.339 294.247 190.403 294.378 190.463 294.517C190.833 296.358 189.867 304.05 189.273 308.076C188.846 303.28 188.077 294.821 188.419 299.356C188.761 303.89 186.282 309.675 185 312Z" fill="#75D04B"/>
<path d="M171 344.685H197.637L194.503 340.565C196.355 331.409 197.103 328.204 197.637 325.915C199.368 318.497 194.454 331.444 192.37 337.683C192.838 333.896 192.612 327.966 191.655 325.915C190.942 331.409 188.863 337.818 186.811 337.818C185.814 337.818 185.814 331.409 185.814 325.915C184.675 331.409 184.627 333.85 184.675 337.818C184.152 338.734 183.108 340.016 183.108 337.818C183.108 335.071 183.678 328.204 182.396 325.915C182.396 331.409 182.158 334.766 181.114 337.818H177.98C176.749 337.818 177.881 329.806 176.463 326.328C176.418 326.097 176.355 325.954 176.27 325.915C176.339 326.044 176.403 326.182 176.463 326.328C176.833 328.261 175.867 336.338 175.273 340.565C174.846 335.529 174.077 326.648 174.419 331.409C174.761 336.17 172.282 342.244 171 344.685Z" fill="#75D04B"/>
<path d="M156 196C159.71 202.151 184.289 198.197 189.39 212.256C194.492 226.315 166.203 228.511 156 196Z" fill="#77B659"/>
<path d="M170.78 167C171.301 174.164 195.003 181.775 193.181 196.62C191.359 211.464 165.145 200.605 170.78 167Z" fill="#77B659"/>
<path d="M212.401 184.709C207.495 186.517 206.725 204.876 196.005 206.563C185.284 208.251 187.841 187.457 212.401 184.709Z" fill="#77B659"/>
<path d="M223.401 212.709C218.495 214.517 217.725 232.876 207.005 234.563C196.284 236.251 198.841 215.457 223.401 212.709Z" fill="#77B659"/>
<path d="M144 261.488C148.178 260.369 161.661 272.709 169.184 268.695C176.707 264.682 160.442 251.52 144 261.488Z" fill="#77B659"/>
</svg>
