<svg width="393" height="393" viewBox="0 0 393 393" fill="none" xmlns="http://www.w3.org/2000/svg">
<ellipse cx="202.5" cy="195" rx="179.5" ry="176" fill="#EAFBFF"/>
<path d="M354 292H34C84 355 129 375 208 383C271.2 389.4 331.667 325 354 292Z" fill="#75D04B"/>
<path fill-rule="evenodd" clip-rule="evenodd" d="M196.5 393C305.024 393 393 305.024 393 196.5C393 87.976 305.024 0 196.5 0C87.976 0 0 87.976 0 196.5C0 305.024 87.976 393 196.5 393ZM196 368C290.993 368 368 290.993 368 196C368 101.007 290.993 24 196 24C101.007 24 24 101.007 24 196C24 290.993 101.007 368 196 368Z" fill="#5A72EF"/>
<path fill-rule="evenodd" clip-rule="evenodd" d="M142.91 58.6019C139.258 52.5566 132.113 49.1151 124.769 50.5167C120.291 51.3715 116.544 53.874 114.038 57.2765C113.23 57.3156 112.415 57.4116 111.597 57.5676C107.225 58.4021 103.55 60.8071 101.046 64.0869C97.5096 61.9601 93.2075 61.0776 88.8351 61.9121C83.0533 63.0157 78.4915 66.8653 76.2426 71.8522C74.192 71.4783 72.0391 71.4695 69.8689 71.8837C61.5319 73.475 55.7313 80.7759 55.7443 88.9635C51.4123 92.8989 49.171 98.929 50.3486 105.099C52.1482 114.527 61.2503 120.712 70.6787 118.912C73.5134 118.371 76.0549 117.17 78.1743 115.498C81.3459 122.781 89.2338 127.166 97.3643 125.615C102.848 124.568 107.235 121.051 109.591 116.435C110.94 116.501 112.319 116.409 113.704 116.144C121.291 114.696 126.778 108.519 127.693 101.249C129.861 101.697 132.151 101.735 134.461 101.294C139.769 100.281 144.049 96.9534 146.455 92.5561C154.865 90.0187 160.169 81.4838 158.486 72.6634C156.993 64.8405 150.472 59.2508 142.91 58.6019Z" fill="#75D04B"/>
<path fill-rule="evenodd" clip-rule="evenodd" d="M240.685 41.0062C239.385 34.0644 233.901 28.3357 226.532 27.0732C222.038 26.3032 217.652 27.333 214.111 29.6404C213.341 29.3937 212.544 29.1978 211.724 29.0573C207.336 28.3056 203.052 29.2693 199.556 31.4625C196.99 28.2307 193.271 25.8956 188.883 25.1439C183.082 24.1499 177.46 26.1553 173.605 30.037C171.816 28.9677 169.803 28.2045 167.625 27.8314C159.259 26.3981 151.267 31.2013 148.408 38.8735C142.971 41.0399 138.757 45.9012 137.697 52.0922C136.076 61.553 142.431 70.5365 151.892 72.1575C154.736 72.6448 157.538 72.4112 160.109 71.5889C160.525 79.5215 166.374 86.3943 174.532 87.7921C180.035 88.735 185.377 86.9792 189.202 83.4835C190.442 84.0178 191.765 84.4149 193.156 84.6531C200.769 85.9575 208.073 82.0968 211.48 75.6092C213.353 76.7888 215.485 77.6277 217.802 78.0248C223.128 78.9373 228.303 77.3219 232.098 74.0475C240.865 74.6206 248.825 68.4876 250.341 59.6369C251.686 51.7872 247.54 44.266 240.685 41.0062Z" fill="#75D04B"/>
<path fill-rule="evenodd" clip-rule="evenodd" d="M242.652 55.5188C246.058 49.3302 253.088 45.607 260.528 46.7184C265.066 47.3962 268.94 49.7504 271.607 53.0534C272.421 53.0606 273.244 53.1244 274.072 53.2481C278.502 53.9099 282.299 56.1694 284.959 59.3497C288.42 57.0836 292.704 56.0314 297.134 56.6931C302.992 57.5682 307.744 61.2371 310.221 66.1345C312.265 65.6796 314.428 65.5858 316.627 65.9142C325.074 67.176 331.221 74.2468 331.564 82.4336C336.089 86.1974 338.603 92.1381 337.689 98.3535C336.291 107.852 327.413 114.395 317.86 112.968C314.988 112.539 312.382 111.438 310.18 109.85C307.309 117.257 299.574 121.953 291.336 120.723C285.78 119.893 281.219 116.549 278.65 112.028C277.297 112.146 275.908 112.109 274.504 111.899C266.817 110.751 261.035 104.792 259.798 97.5585C257.639 98.0917 255.34 98.2204 252.999 97.8709C247.621 97.0675 243.176 93.9095 240.567 89.6079C232.005 87.403 226.303 79.0788 227.611 70.1932C228.771 62.3126 235.08 56.4663 242.652 55.5188Z" fill="#75D04B"/>
<path fill-rule="evenodd" clip-rule="evenodd" d="M336.857 123.685C341.431 129.068 342.412 136.963 338.729 143.522C336.483 147.523 332.906 150.307 328.871 151.626C328.575 152.384 328.222 153.13 327.813 153.861C325.62 157.766 322.158 160.513 318.24 161.868C319.128 165.908 318.589 170.287 316.396 174.193C313.496 179.358 308.378 182.495 302.92 183.07C302.619 185.142 301.938 187.198 300.849 189.136C296.668 196.583 287.874 199.816 280.1 197.227C274.973 200.118 268.527 200.357 263.042 197.293C254.661 192.611 251.701 181.988 256.429 173.566C257.851 171.034 259.806 168.989 262.073 167.494C256.17 162.179 254.529 153.28 258.607 146.017C261.358 141.118 266.104 138.043 271.243 137.249C271.613 135.943 272.142 134.658 272.837 133.42C276.642 126.643 284.267 123.356 291.468 124.771C291.737 122.563 292.434 120.368 293.592 118.305C296.254 113.563 300.786 110.531 305.734 109.621C310.838 102.401 320.645 100.03 328.486 104.411C335.44 108.296 338.662 116.271 336.857 123.685Z" fill="#75D04B"/>
<path fill-rule="evenodd" clip-rule="evenodd" d="M47.9451 128.141C43.9939 133.524 43.1461 141.419 46.3277 147.978C48.2682 151.979 51.3584 154.763 54.8442 156.082C55.0997 156.84 55.404 157.587 55.7581 158.317C57.6525 162.223 60.6428 164.969 64.0272 166.324C63.26 170.365 63.7259 174.744 65.6203 178.649C68.1253 183.814 72.5466 186.952 77.2615 187.526C77.5218 189.599 78.1101 191.654 79.0504 193.592C82.6626 201.04 90.259 204.272 96.9749 201.683C101.403 204.575 106.972 204.814 111.71 201.75C118.95 197.067 121.507 186.444 117.422 178.022C116.194 175.49 114.505 173.445 112.547 171.951C117.647 166.636 119.064 157.736 115.541 150.473C113.165 145.575 109.065 142.5 104.625 141.706C104.306 140.399 103.849 139.114 103.249 137.876C99.9614 131.099 93.3744 127.813 87.1543 129.227C86.922 127.02 86.32 124.824 85.3193 122.761C83.0195 118.02 79.1047 114.987 74.8303 114.077C70.4213 106.858 61.9496 104.487 55.1764 108.867C49.1693 112.752 46.3856 120.727 47.9451 128.141Z" fill="#75D04B"/>
<path fill-rule="evenodd" clip-rule="evenodd" d="M115.894 180.975C117.669 187.412 123.339 192.971 130.458 194.541C134.8 195.498 138.901 194.799 142.096 192.881C142.85 193.15 143.624 193.375 144.416 193.549C148.656 194.484 152.664 193.84 155.826 192.024C158.521 195.131 162.246 197.479 166.485 198.414C172.09 199.649 177.293 198.125 180.666 194.781C182.454 195.862 184.432 196.674 186.536 197.138C194.618 198.92 201.864 194.962 203.995 188.088C209.009 186.405 212.649 182.184 213.181 176.566C213.995 167.983 207.244 159.391 198.103 157.376C195.355 156.77 192.703 156.828 190.317 157.438C189.307 150.141 183.202 143.513 175.319 141.775C170.002 140.603 165.048 141.915 161.673 144.906C160.449 144.347 159.158 143.909 157.815 143.613C150.459 141.991 143.797 145.123 141.051 150.881C139.175 149.694 137.079 148.806 134.84 148.313C129.694 147.178 124.887 148.37 121.523 151.16C113.125 150.145 106.014 155.323 105.252 163.353C104.577 170.475 109.11 177.603 115.894 180.975Z" fill="#75D04B"/>
<path fill-rule="evenodd" clip-rule="evenodd" d="M180.713 185.281C182.488 191.719 188.157 197.278 195.277 198.847C199.619 199.804 203.719 199.105 206.915 197.188C207.668 197.457 208.443 197.681 209.235 197.856C213.474 198.79 217.483 198.146 220.644 196.33C223.339 199.437 227.064 201.786 231.303 202.72C236.909 203.956 242.112 202.431 245.485 199.088C247.273 200.168 249.25 200.98 251.354 201.444C259.437 203.226 266.682 199.269 268.814 192.394C273.828 190.712 277.467 186.49 278 180.873C278.813 172.289 272.063 163.697 262.922 161.682C260.173 161.076 257.522 161.134 255.135 161.744C254.126 154.448 248.02 147.819 240.138 146.082C234.821 144.91 229.866 146.221 226.492 149.212C225.268 148.653 223.976 148.215 222.633 147.919C215.278 146.298 208.615 149.429 205.87 155.187C203.994 154.001 201.898 153.113 199.658 152.619C194.512 151.485 189.706 152.677 186.342 155.467C177.944 154.451 170.832 159.629 170.071 167.66C169.396 174.782 173.928 181.909 180.713 185.281Z" fill="#75D04B"/>
<path fill-rule="evenodd" clip-rule="evenodd" d="M144.748 68.2321C141.096 62.1868 133.951 58.7453 126.608 60.1469C122.129 61.0017 118.382 63.5042 115.876 66.9067C115.068 66.9458 114.253 67.0418 113.435 67.1978C109.063 68.0323 105.388 70.4373 102.884 73.7171C99.3478 71.5903 95.0456 70.7078 90.6732 71.5424C84.8914 72.6459 80.3296 76.4955 78.0807 81.4825C76.0301 81.1085 73.8772 81.0997 71.707 81.5139C63.37 83.1052 57.5694 90.4061 57.5824 98.5937C53.2504 102.529 51.0091 108.559 52.1867 114.729C53.9863 124.158 63.0884 130.342 72.5169 128.542C75.3515 128.001 77.893 126.8 80.0124 125.129C83.184 132.411 91.0719 136.797 99.2024 135.245C104.686 134.198 109.073 130.681 111.429 126.066C112.778 126.131 114.157 126.039 115.542 125.775C123.129 124.326 128.616 118.15 129.532 110.879C131.699 111.327 133.99 111.365 136.299 110.924C141.607 109.911 145.887 106.584 148.293 102.186C156.704 99.6489 162.008 91.1141 160.324 82.2936C158.831 74.4707 152.311 68.8811 144.748 68.2321Z" fill="#77B659"/>
<path fill-rule="evenodd" clip-rule="evenodd" d="M239.029 50.6695C237.73 43.7276 232.245 37.9989 224.876 36.7364C220.382 35.9664 215.996 36.9962 212.455 39.3036C211.685 39.0569 210.888 38.8611 210.068 38.7206C205.681 37.9688 201.396 38.9325 197.901 41.1258C195.335 37.894 191.615 35.5589 187.228 34.8072C181.426 33.8131 175.804 35.8186 171.949 39.7002C170.16 38.6309 168.147 37.8677 165.969 37.4946C157.604 36.0613 149.611 40.8645 146.752 48.5367C141.315 50.7032 137.102 55.5644 136.041 61.7554C134.42 71.2162 140.775 80.1997 150.236 81.8207C153.081 82.3081 155.882 82.0744 158.453 81.2521C158.869 89.1847 164.718 96.0575 172.877 97.4554C178.38 98.3982 183.721 96.6425 187.546 93.1468C188.787 93.681 190.11 94.0781 191.5 94.3163C199.113 95.6207 206.417 91.76 209.824 85.2725C211.698 86.452 213.829 87.2909 216.146 87.688C221.473 88.6006 226.648 86.9851 230.443 83.7108C239.209 84.2838 247.169 78.1509 248.686 69.3002C250.031 61.4504 245.884 53.9293 239.029 50.6695Z" fill="#77B659"/>
<path fill-rule="evenodd" clip-rule="evenodd" d="M241.224 65.2201C244.63 59.0316 251.66 55.3083 259.101 56.4197C263.638 57.0976 267.512 59.4518 270.179 62.7548C270.993 62.7619 271.816 62.8258 272.644 62.9495C277.074 63.6112 280.871 65.8707 283.531 69.0511C286.992 66.785 291.276 65.7327 295.706 66.3945C301.564 67.2695 306.316 70.9384 308.793 75.8358C310.837 75.3809 313 75.2871 315.199 75.6156C323.646 76.8774 329.793 83.9482 330.136 92.135C334.661 95.8988 337.175 101.839 336.261 108.055C334.863 117.553 325.985 124.096 316.432 122.669C313.56 122.24 310.954 121.139 308.752 119.552C305.881 126.959 298.146 131.655 289.908 130.424C284.352 129.594 279.791 126.251 277.222 121.729C275.869 121.848 274.48 121.81 273.076 121.601C265.389 120.452 259.607 114.493 258.37 107.26C256.211 107.793 253.912 107.922 251.571 107.572C246.194 106.769 241.748 103.611 239.139 99.3092C230.577 97.1043 224.875 88.7802 226.183 79.8946C227.343 72.0139 233.652 66.1676 241.224 65.2201Z" fill="#77B659"/>
<path fill-rule="evenodd" clip-rule="evenodd" d="M328.296 118.902C332.87 124.285 333.852 132.18 330.169 138.739C327.923 142.74 324.345 145.524 320.31 146.843C320.014 147.601 319.662 148.348 319.252 149.078C317.059 152.984 313.597 155.73 309.68 157.085C310.568 161.126 310.028 165.505 307.835 169.41C304.936 174.575 299.817 177.713 294.359 178.287C294.058 180.36 293.377 182.415 292.289 184.354C288.107 191.801 279.313 195.033 271.539 192.444C266.413 195.336 259.966 195.575 254.482 192.511C246.101 187.828 243.14 177.205 247.869 168.783C249.291 166.251 251.246 164.206 253.513 162.712C247.609 157.397 245.969 148.497 250.047 141.234C252.797 136.336 257.544 133.261 262.683 132.467C263.053 131.16 263.582 129.875 264.276 128.637C268.082 121.86 275.707 118.574 282.907 119.988C283.176 117.781 283.873 115.585 285.032 113.522C287.694 108.781 292.226 105.748 297.174 104.838C302.278 97.6185 312.085 95.2478 319.925 99.6282C326.879 103.513 330.102 111.488 328.296 118.902Z" fill="#77B659"/>
<path fill-rule="evenodd" clip-rule="evenodd" d="M55.3401 123.358C51.3889 128.742 50.541 136.636 53.7227 143.196C55.6631 147.196 58.7533 149.981 62.2391 151.3C62.4947 152.058 62.7989 152.804 63.153 153.534C65.0475 157.44 68.0377 160.186 71.4222 161.542C70.655 165.582 71.1208 169.961 73.0152 173.867C75.5203 179.031 79.9416 182.169 84.6564 182.744C84.9167 184.816 85.5051 186.871 86.4454 188.81C90.0575 196.257 97.654 199.489 104.37 196.901C108.798 199.792 114.367 200.031 119.105 196.967C126.345 192.285 128.902 181.662 124.817 173.24C123.589 170.707 121.9 168.663 119.942 167.168C125.042 161.853 126.458 152.953 122.936 145.691C120.56 140.792 116.46 137.717 112.02 136.923C111.701 135.616 111.244 134.331 110.644 133.094C107.356 126.317 100.769 123.03 94.5493 124.445C94.317 122.237 93.7149 120.042 92.7142 117.979C90.4144 113.237 86.4996 110.204 82.2253 109.294C77.8162 102.075 69.3445 99.7042 62.5714 104.085C56.5642 107.97 53.7806 115.944 55.3401 123.358Z" fill="#77B659"/>
<path fill-rule="evenodd" clip-rule="evenodd" d="M116.725 172.208C118.5 178.645 124.17 184.204 131.289 185.773C135.631 186.73 139.732 186.031 142.927 184.114C143.681 184.383 144.455 184.607 145.247 184.782C149.487 185.716 153.495 185.072 156.657 183.257C159.352 186.363 163.077 188.712 167.316 189.646C172.921 190.882 178.124 189.357 181.497 186.014C183.285 187.094 185.263 187.907 187.367 188.37C195.449 190.152 202.695 186.195 204.826 179.32C209.84 177.638 213.48 173.416 214.012 167.799C214.826 159.215 208.075 150.623 198.934 148.608C196.186 148.003 193.534 148.06 191.148 148.67C190.138 141.374 184.033 134.746 176.15 133.008C170.833 131.836 165.879 133.147 162.504 136.139C161.28 135.579 159.989 135.141 158.646 134.845C151.29 133.224 144.628 136.355 141.882 142.113C140.006 140.927 137.91 140.039 135.671 139.545C130.525 138.411 125.718 139.603 122.354 142.393C113.956 141.377 106.845 146.556 106.083 154.586C105.408 161.708 109.941 168.836 116.725 172.208Z" fill="#77B659"/>
<path fill-rule="evenodd" clip-rule="evenodd" d="M178.93 181.862C180.705 188.299 186.375 193.858 193.494 195.427C197.836 196.385 201.937 195.686 205.133 193.768C205.886 194.037 206.66 194.261 207.453 194.436C211.692 195.37 215.7 194.726 218.862 192.911C221.557 196.017 225.282 198.366 229.521 199.3C235.126 200.536 240.329 199.012 243.703 195.668C245.49 196.748 247.468 197.561 249.572 198.024C257.655 199.806 264.9 195.849 267.031 188.974C272.045 187.292 275.685 183.07 276.217 177.453C277.031 168.869 270.28 160.277 261.139 158.262C258.391 157.657 255.739 157.714 253.353 158.324C252.343 151.028 246.238 144.4 238.355 142.662C233.038 141.49 228.084 142.801 224.709 145.793C223.485 145.233 222.194 144.795 220.851 144.499C213.495 142.878 206.833 146.009 204.087 151.767C202.211 150.581 200.115 149.693 197.876 149.199C192.73 148.065 187.923 149.257 184.56 152.047C176.161 151.031 169.05 156.21 168.289 164.24C167.614 171.362 172.146 178.49 178.93 181.862Z" fill="#77B659"/>
<path fill-rule="evenodd" clip-rule="evenodd" d="M99.6068 133.733C101.382 140.17 107.051 145.729 114.171 147.298C118.513 148.256 122.613 147.557 125.809 145.639C126.562 145.908 127.337 146.132 128.129 146.307C132.368 147.241 136.377 146.597 139.538 144.782C142.233 147.888 145.958 150.237 150.197 151.171C155.803 152.407 161.005 150.883 164.379 147.539C166.167 148.619 168.144 149.432 170.248 149.896C178.331 151.677 185.576 147.72 187.708 140.845C192.722 139.163 196.361 134.941 196.894 129.324C197.707 120.74 190.956 112.148 181.815 110.133C179.067 109.528 176.416 109.585 174.029 110.196C173.019 102.899 166.914 96.2707 159.032 94.5331C153.715 93.3611 148.76 94.6723 145.385 97.6637C144.162 97.1045 142.87 96.6665 141.527 96.3704C134.171 94.7489 127.509 97.8805 124.764 103.638C122.887 102.452 120.792 101.564 118.552 101.07C113.406 99.9359 108.6 101.128 105.236 103.918C96.8378 102.903 89.7261 108.081 88.965 116.111C88.29 123.233 92.8223 130.361 99.6068 133.733Z" fill="#77B659"/>
<path fill-rule="evenodd" clip-rule="evenodd" d="M141.497 115.016C143.272 121.453 148.941 127.012 156.061 128.582C160.403 129.539 164.503 128.84 167.699 126.922C168.452 127.191 169.227 127.415 170.019 127.59C174.258 128.524 178.267 127.88 181.428 126.065C184.123 129.171 187.848 131.52 192.087 132.455C197.693 133.69 202.895 132.166 206.269 128.822C208.057 129.903 210.034 130.715 212.138 131.179C220.221 132.96 227.466 129.003 229.598 122.129C234.612 120.446 238.251 116.224 238.784 110.607C239.597 102.024 232.846 93.4316 223.705 91.4166C220.957 90.8108 218.306 90.8685 215.919 91.4787C214.909 84.1823 208.804 77.5539 200.922 75.8163C195.605 74.6443 190.65 75.9555 187.275 78.9469C186.052 78.3877 184.76 77.9497 183.417 77.6536C176.061 76.0321 169.399 79.1636 166.654 84.9215C164.777 83.7353 162.682 82.847 160.442 82.3534C155.296 81.219 150.49 82.411 147.126 85.2011C138.728 84.1857 131.616 89.3639 130.855 97.3942C130.18 104.516 134.712 111.644 141.497 115.016Z" fill="#77B659"/>
<path fill-rule="evenodd" clip-rule="evenodd" d="M170.909 139.08C172.684 145.518 178.353 151.077 185.473 152.646C189.815 153.603 193.915 152.904 197.111 150.986C197.864 151.256 198.639 151.48 199.431 151.655C203.67 152.589 207.679 151.945 210.84 150.129C213.535 153.236 217.26 155.585 221.499 156.519C227.105 157.755 232.308 156.23 235.681 152.887C237.469 153.967 239.446 154.779 241.55 155.243C249.633 157.025 256.878 153.068 259.01 146.193C264.024 144.51 267.663 140.289 268.196 134.672C269.009 126.088 262.259 117.496 253.118 115.481C250.369 114.875 247.718 114.933 245.331 115.543C244.322 108.247 238.216 101.618 230.334 99.8808C225.017 98.7088 220.062 100.02 216.688 103.011C215.464 102.452 214.172 102.014 212.829 101.718C205.474 100.097 198.811 103.228 196.066 108.986C194.19 107.8 192.094 106.912 189.854 106.418C184.708 105.284 179.902 106.475 176.538 109.266C168.14 108.25 161.028 113.428 160.267 121.459C159.592 128.581 164.124 135.708 170.909 139.08Z" fill="#77B659"/>
<path fill-rule="evenodd" clip-rule="evenodd" d="M192.3 112.342C194.075 118.779 199.744 124.338 206.864 125.908C211.206 126.865 215.306 126.166 218.502 124.248C219.255 124.517 220.029 124.742 220.822 124.916C225.061 125.851 229.07 125.207 232.231 123.391C234.926 126.498 238.651 128.846 242.89 129.781C248.496 131.016 253.698 129.492 257.072 126.148C258.859 127.229 260.837 128.041 262.941 128.505C271.024 130.287 278.269 126.329 280.401 119.455C285.414 117.772 289.054 113.551 289.586 107.934C290.4 99.3498 283.649 90.7578 274.508 88.7428C271.76 88.137 269.109 88.1947 266.722 88.8049C265.712 81.5085 259.607 74.8801 251.724 73.1425C246.408 71.9705 241.453 73.2817 238.078 76.2731C236.855 75.7139 235.563 75.2758 234.22 74.9798C226.864 73.3583 220.202 76.4898 217.456 82.2476C215.58 81.0615 213.484 80.1732 211.245 79.6796C206.099 78.5452 201.292 79.7372 197.929 82.5272C189.531 81.5119 182.419 86.6901 181.658 94.7203C180.983 101.842 185.515 108.97 192.3 112.342Z" fill="#77B659"/>
<path fill-rule="evenodd" clip-rule="evenodd" d="M217.413 298.34C224.144 299.101 226.57 303.155 230.516 309.747C233.703 315.072 237.883 322.053 246.124 330.295C240.55 333.639 231.281 330.709 222.852 328.044C217.802 326.448 213.054 324.947 209.581 324.947C200.637 324.947 208.955 337.397 214.354 345.476C214.55 345.769 214.742 346.057 214.929 346.338L209.581 351.685C208.014 350.196 206.094 347.631 203.872 344.661C197.673 336.377 189.119 324.947 179.278 324.947H144.518C130.258 324.947 137.388 320.49 144.518 316.034C147.645 314.08 152.658 312.297 158.88 310.084C162.767 308.701 167.125 307.151 171.79 305.287C177.607 281.168 181.447 204.439 168.583 198.386C159.622 194.169 159.701 191.199 159.787 188C159.847 185.791 159.909 183.473 156.996 180.56C155.198 178.761 155.567 178.924 157.903 179.953C162.976 182.187 177.324 188.504 198.886 187.69L224.733 198.386C216.451 228.752 213.816 277.454 217.413 298.34Z" fill="#874F1C"/>
<path fill-rule="evenodd" clip-rule="evenodd" d="M220.094 204.207C215.652 204.569 213.627 202.767 208.781 197.082C211.31 193.068 214.525 188.493 218.005 183.783C215.905 175.35 214.148 149.923 217.732 145.349C221.136 141.008 223.48 141.295 224.226 141.981C222.404 148.263 221.764 154.569 222.257 160.341C222.305 160.902 222.811 162.757 223.505 165.304C224.146 167.656 224.948 170.598 225.7 173.659C230.352 167.679 234.946 161.973 238.608 157.426C242.518 152.569 245.365 149.033 246.081 147.896C253.444 136.206 259.852 122.687 264.594 108.469C266.424 107.515 270.008 108.403 269.704 119.588C269.532 125.924 260.239 143.823 249.713 161.536C250.941 160.96 252.102 160.432 253.091 159.982L253.091 159.981L253.091 159.981C254.626 159.282 255.744 158.773 256.044 158.572C259.128 156.503 262.063 153.712 264.553 150.401C265.173 150.464 266.177 151.402 265.243 154.653C264.137 158.505 247.284 169.794 244.375 170.338C233.234 188.347 222.186 204.036 220.094 204.207Z" fill="#874F1C"/>
<path fill-rule="evenodd" clip-rule="evenodd" d="M163.623 190.494C166.494 190.053 167.64 188.63 170.271 184.372C168.324 182.257 165.891 179.896 163.277 177.491C163.925 171.937 162.955 155.875 160.286 153.571C157.752 151.383 156.276 151.913 155.855 152.451C157.538 156.081 158.467 159.903 158.626 163.563C158.642 163.919 158.471 165.147 158.237 166.834C158.021 168.391 157.75 170.34 157.521 172.354C154.054 169.336 150.645 166.479 147.929 164.202L147.929 164.202L147.929 164.202C145.028 161.77 142.916 160 142.364 159.401C136.692 153.241 131.48 145.801 127.276 137.678C126.027 137.36 123.808 138.448 124.923 145.352C125.555 149.263 132.973 158.992 141.164 168.42C140.331 168.246 139.545 168.091 138.876 167.96L138.876 167.96C137.836 167.756 137.079 167.607 136.871 167.527C134.728 166.703 132.621 165.409 130.756 163.725C130.365 163.857 129.799 164.59 130.664 166.47C131.689 168.698 143.398 173.187 145.303 173.089C153.912 182.609 162.27 190.701 163.623 190.494Z" fill="#874F1C"/>
<path fill-rule="evenodd" clip-rule="evenodd" d="M193.003 198.705C195.814 199.435 197.429 198.581 201.529 195.709C200.576 192.996 199.273 189.866 197.822 186.624C200.613 181.778 206.069 166.64 204.527 163.468C203.063 160.457 201.499 160.361 200.899 160.689C201.01 164.689 200.354 168.567 199.054 171.992C198.928 172.325 198.286 173.386 197.404 174.842C196.59 176.188 195.571 177.87 194.565 179.631C192.573 175.488 190.571 171.516 188.975 168.351L188.975 168.351C187.271 164.971 186.03 162.511 185.76 161.742C182.984 153.842 181.135 144.949 180.484 135.826C179.462 135.039 176.993 135.163 175.29 141.945C174.325 145.788 177.295 157.656 181.094 169.553C180.398 169.064 179.737 168.612 179.174 168.227L179.174 168.227C178.299 167.628 177.663 167.192 177.503 167.036C175.86 165.433 174.436 163.412 173.388 161.127C172.976 161.094 172.167 161.545 172.219 163.613C172.28 166.065 181.263 174.815 183.051 175.478C187.198 187.625 191.678 198.361 193.003 198.705Z" fill="#874F1C"/>
<path d="M189 329.685H135.726L141.993 325.565C138.29 316.409 136.794 313.204 135.726 310.915C132.263 303.497 142.093 316.444 146.26 322.683C145.323 318.896 145.777 312.966 147.691 310.915C149.115 316.409 153.275 322.818 157.377 322.818C159.371 322.818 159.371 316.409 159.371 310.915C161.651 316.409 161.746 318.85 161.651 322.818C162.695 323.734 164.784 325.016 164.784 322.818C164.784 320.071 163.645 313.204 166.209 310.915C166.209 316.409 166.684 319.766 168.773 322.818H175.04C177.501 322.818 175.238 314.806 178.075 311.328C178.163 311.097 178.289 310.954 178.459 310.915C178.322 311.044 178.194 311.182 178.075 311.328C177.334 313.261 179.265 321.338 180.453 325.565C181.308 320.529 182.846 311.648 182.163 316.409C181.479 321.17 186.436 327.244 189 329.685Z" fill="#75D04B"/>
<path d="M207 333.685H233.637L230.503 329.761C232.355 321.041 233.103 317.989 233.637 315.809C235.368 308.744 230.454 321.075 228.37 327.017C228.838 323.409 228.612 317.762 227.655 315.809C226.942 321.041 224.863 327.145 222.811 327.145C221.814 327.145 221.814 321.041 221.814 315.809C220.675 321.041 220.627 323.366 220.675 327.145C220.152 328.017 219.108 329.238 219.108 327.145C219.108 324.529 219.678 317.989 218.396 315.809C218.396 321.041 218.158 324.238 217.114 327.145H213.98C212.749 327.145 213.881 319.514 212.463 316.202C212.418 315.982 212.355 315.846 212.27 315.809C212.339 315.932 212.403 316.063 212.463 316.202C212.833 318.043 211.867 325.735 211.273 329.761C210.846 324.965 210.077 316.507 210.419 321.041C210.761 325.576 208.282 331.36 207 333.685Z" fill="#75D04B"/>
<path d="M171 344.685H197.637L194.503 340.565C196.355 331.409 197.103 328.204 197.637 325.915C199.368 318.497 194.454 331.444 192.37 337.683C192.838 333.896 192.612 327.966 191.655 325.915C190.942 331.409 188.863 337.818 186.811 337.818C185.814 337.818 185.814 331.409 185.814 325.915C184.675 331.409 184.627 333.85 184.675 337.818C184.152 338.734 183.108 340.016 183.108 337.818C183.108 335.071 183.678 328.204 182.396 325.915C182.396 331.409 182.158 334.766 181.114 337.818H177.98C176.749 337.818 177.881 329.806 176.463 326.328C176.418 326.097 176.355 325.954 176.27 325.915C176.339 326.044 176.403 326.182 176.463 326.328C176.833 328.261 175.867 336.338 175.273 340.565C174.846 335.529 174.077 326.648 174.419 331.409C174.761 336.17 172.282 342.244 171 344.685Z" fill="#75D04B"/>
</svg>
